<svg width="143" height="120" viewBox="0 0 143 120" fill="none" xmlns="http://www.w3.org/2000/svg">
<path opacity="0.7" d="M118.23 34.7732L120.693 24.7521L122.509 25.2389C125.468 26.0316 127.965 24.8093 128.702 22.0584C129.425 19.3594 127.964 17.132 125.005 16.3393C122.254 15.6022 119.526 16.6512 117.425 19.0924L113.891 13.8061C117.121 10.0544 121.879 8.49213 127.121 9.89679C133.765 11.677 137.24 17.3923 135.627 23.4131C134.278 28.4478 130.349 31.0668 125.454 31.4797L123.836 36.2752L118.23 34.7732ZM117.449 48.6938C114.957 48.0262 113.693 45.6849 114.347 43.2454C115 40.8059 117.266 39.4103 119.757 40.0778C122.249 40.7454 123.513 43.0868 122.859 45.5262C122.205 47.9657 119.94 49.3614 117.449 48.6938Z" fill="currentColor"/>
<path opacity="0.7" d="M14.3332 44.523L12.2413 37.3194L13.5618 36.9655C15.7124 36.3893 16.8401 34.7122 16.3043 32.7125C15.7786 30.7506 14.049 29.8796 11.8984 30.4558C9.89874 30.9916 8.56214 32.6438 8.12709 34.9441L3.9806 32.9009C4.65069 29.365 7.07801 26.6522 10.8887 25.6311C15.7181 24.3371 19.9832 26.672 21.1559 31.0486C22.1366 34.7084 20.6155 37.7849 17.6841 39.8239L18.408 43.4312L14.3332 44.523ZM18.9008 53.5706C17.0897 54.0558 15.443 53.0413 14.9678 51.268C14.4927 49.4947 15.4115 47.7927 17.2226 47.3074C19.0336 46.8222 20.6803 47.8367 21.1555 49.61C21.6306 51.3833 20.7118 53.0853 18.9008 53.5706Z" fill="currentColor"/>
<path d="M86.0777 60.1111C86.0777 69.5613 78.4168 77.2222 68.9666 77.2222C59.5164 77.2222 51.8555 69.5613 51.8555 60.1111C51.8555 50.6609 59.5164 43 68.9666 43C78.4168 43 86.0777 50.6609 86.0777 60.1111Z" fill="currentColor"/>
<path d="M91.4249 120C98.5125 120 104.454 114.124 102.332 107.362C102.111 106.657 101.871 105.958 101.612 105.267C99.8658 100.596 97.3056 96.3514 94.0781 92.7764C90.8507 89.2013 87.0191 86.3654 82.8022 84.4306C78.5853 82.4958 74.0656 81.5 69.5013 81.5C64.9369 81.5 60.4173 82.4958 56.2004 84.4306C51.9834 86.3654 48.1519 89.2013 44.9244 92.7764C41.6969 96.3514 39.1367 100.596 37.39 105.267C37.1315 105.958 36.8916 106.657 36.6704 107.362C34.5487 114.124 40.49 120 47.5777 120L69.5013 120H91.4249Z" fill="currentColor"/>
</svg>
