<svg width="271" height="288" viewBox="0 0 271 288" fill="none" xmlns="http://www.w3.org/2000/svg">
<g opacity="0.4">
<ellipse opacity="0.2" cx="140.026" cy="156.357" rx="114.229" ry="114.355" fill="white"/>
<ellipse opacity="0.1" cx="140.028" cy="156.358" rx="130.969" ry="131.114" fill="white"/>
<ellipse opacity="0.6" cx="140.027" cy="156.357" rx="85.6718" ry="85.766" fill="white"/>
</g>
<mask id="path-4-outside-1_2822_21572" maskUnits="userSpaceOnUse" x="126.477" y="1.31307" width="128.851" height="156.507" fill="black">
<rect fill="white" x="126.477" y="1.31307" width="128.851" height="156.507"/>
<path fill-rule="evenodd" clip-rule="evenodd" d="M218.088 37.4625C216.669 42.7636 212.662 46.6713 207.815 48.164C208.677 50.1804 208.894 52.4899 208.283 54.7726C207.868 56.3223 207.117 57.6916 206.128 58.8227C224.191 67.9974 234.009 88.8588 228.558 109.226C222.301 132.6 198.302 146.472 174.953 140.208C151.604 133.945 137.748 109.919 144.004 86.5445C149.451 66.1951 168.345 53.0481 188.551 54.1187C188.257 52.6409 188.289 51.0747 188.705 49.521C189.316 47.2376 190.659 45.3459 192.413 44.0307C188.962 40.312 187.444 34.9232 188.863 29.6231C191.046 21.4656 199.359 16.6075 207.429 18.7723C215.499 20.937 220.271 29.305 218.088 37.4625ZM196.169 31.583C195.078 35.6617 197.464 39.8457 201.499 40.9281C205.534 42.0105 209.69 39.5814 210.782 35.5027C211.873 31.4239 209.487 27.2399 205.452 26.1575C201.417 25.0751 197.261 27.5042 196.169 31.583Z"/>
</mask>
<path fill-rule="evenodd" clip-rule="evenodd" d="M218.088 37.4625C216.669 42.7636 212.662 46.6713 207.815 48.164C208.677 50.1804 208.894 52.4899 208.283 54.7726C207.868 56.3223 207.117 57.6916 206.128 58.8227C224.191 67.9974 234.009 88.8588 228.558 109.226C222.301 132.6 198.302 146.472 174.953 140.208C151.604 133.945 137.748 109.919 144.004 86.5445C149.451 66.1951 168.345 53.0481 188.551 54.1187C188.257 52.6409 188.289 51.0747 188.705 49.521C189.316 47.2376 190.659 45.3459 192.413 44.0307C188.962 40.312 187.444 34.9232 188.863 29.6231C191.046 21.4656 199.359 16.6075 207.429 18.7723C215.499 20.937 220.271 29.305 218.088 37.4625ZM196.169 31.583C195.078 35.6617 197.464 39.8457 201.499 40.9281C205.534 42.0105 209.69 39.5814 210.782 35.5027C211.873 31.4239 209.487 27.2399 205.452 26.1575C201.417 25.0751 197.261 27.5042 196.169 31.583Z" fill="#857BFF"/>
<path d="M207.815 48.164L206.517 43.9522L201.841 45.3922L203.764 49.8938L207.815 48.164ZM206.128 58.8227L202.811 55.9215L199.084 60.186L204.135 62.7517L206.128 58.8227ZM188.551 54.1187L188.32 58.5193L193.976 58.819L192.872 53.2617L188.551 54.1187ZM192.413 44.0307L195.056 47.5571L198.97 44.6218L195.641 41.0336L192.413 44.0307ZM201.499 40.9281L200.36 45.1845L200.36 45.1845L201.499 40.9281ZM209.113 52.3757C215.362 50.4514 220.52 45.4164 222.344 38.6041L213.832 36.3209C212.818 40.1108 209.962 42.8912 206.517 43.9522L209.113 52.3757ZM212.539 55.9142C213.414 52.6455 213.102 49.326 211.866 46.4342L203.764 49.8938C204.252 51.0349 204.374 52.3343 204.027 53.631L212.539 55.9142ZM209.446 61.7238C210.868 60.0968 211.946 58.1286 212.539 55.9142L204.027 53.631C203.79 54.516 203.366 55.2863 202.811 55.9215L209.446 61.7238ZM204.135 62.7517C220.376 71.0011 229.204 89.7676 224.302 108.084L232.813 110.367C238.813 87.9501 228.006 64.9937 208.121 54.8936L204.135 62.7517ZM224.302 108.084C218.674 129.112 197.087 141.584 176.092 135.952L173.814 144.465C199.517 151.359 225.929 136.089 232.813 110.367L224.302 108.084ZM176.092 135.952C155.097 130.32 142.632 108.714 148.26 87.6861L139.748 85.4029C132.864 111.124 148.111 137.57 173.814 144.465L176.092 135.952ZM148.26 87.6861C153.158 69.3853 170.152 57.5567 188.32 58.5193L188.782 49.718C166.538 48.5395 145.743 63.0049 139.748 85.4029L148.26 87.6861ZM184.449 48.3794C183.855 50.5996 183.807 52.85 184.23 54.9756L192.872 53.2617C192.707 52.4319 192.723 51.5498 192.961 50.6625L184.449 48.3794ZM189.769 40.5043C187.254 42.3905 185.325 45.1098 184.449 48.3794L192.961 50.6625C193.308 49.3655 194.064 48.3013 195.056 47.5571L189.769 40.5043ZM184.607 28.4815C182.784 35.2925 184.736 42.2338 189.184 47.0278L195.641 41.0336C193.188 38.3903 192.105 34.5538 193.119 30.7647L184.607 28.4815ZM208.568 14.5159C198.105 11.7092 187.408 18.016 184.607 28.4815L193.119 30.7647C194.684 24.9152 200.612 21.5057 206.29 23.0286L208.568 14.5159ZM222.344 38.6041C225.145 28.1385 219.031 17.3225 208.568 14.5159L206.29 23.0286C211.967 24.5515 215.398 30.4714 213.832 36.3209L222.344 38.6041ZM202.638 36.6717C200.996 36.2312 199.951 34.4953 200.425 32.7245L191.914 30.4414C190.204 36.8282 193.932 43.4602 200.36 45.1845L202.638 36.6717ZM206.526 34.3611C206.052 36.1318 204.28 37.1122 202.638 36.6717L200.36 45.1845C206.788 46.9087 213.328 43.031 215.037 36.6442L206.526 34.3611ZM204.313 30.4139C205.955 30.8544 207 32.5903 206.526 34.3611L215.037 36.6442C216.747 30.2574 213.019 23.6254 206.591 21.9012L204.313 30.4139ZM200.425 32.7245C200.899 30.9538 202.671 29.9734 204.313 30.4139L206.591 21.9012C200.163 20.1769 193.623 24.0546 191.914 30.4414L200.425 32.7245Z" fill="white" mask="url(#path-4-outside-1_2822_21572)"/>
<path d="M164.048 122.894L184.458 135.447C186.077 136.442 188.03 134.804 187.332 133.037L178.527 110.731C177.776 108.83 176.606 107.122 175.104 105.735L125.877 60.2744C124.558 59.0567 122.584 60.7129 123.552 62.2237L124.592 61.5567L123.552 62.2237L159.725 118.651C160.829 120.372 162.306 121.823 164.048 122.894Z" fill="#857BFF" stroke="white" stroke-width="2.47152"/>
<path d="M154.556 118.143C158.789 119.278 163.136 116.764 164.269 112.53C165.403 108.297 162.893 103.943 158.661 102.807C154.429 101.672 150.081 104.187 148.948 108.42C147.815 112.654 150.324 117.008 154.556 118.143Z" fill="#857BFF" stroke="white" stroke-width="2.93746"/>
<path d="M181.517 125.378C185.749 126.513 190.097 123.998 191.23 119.765C192.364 115.531 189.854 111.177 185.622 110.042C181.39 108.907 177.042 111.421 175.909 115.655C174.776 119.888 177.285 124.242 181.517 125.378Z" fill="#857BFF" stroke="white" stroke-width="2.93746"/>
<ellipse cx="10.2819" cy="10.2917" rx="10.2819" ry="10.2917" transform="matrix(0.965855 0.259085 -0.258554 0.965997 162.199 62.1953)" fill="white"/>
<ellipse cx="10.2819" cy="10.2917" rx="10.2819" ry="10.2917" transform="matrix(0.965855 0.259085 -0.258554 0.965997 182.344 67.5986)" fill="white"/>
<ellipse cx="5.87536" cy="5.88095" rx="5.87536" ry="5.88095" transform="matrix(0.965855 0.259085 -0.258554 0.965997 168.973 68.7295)" fill="black"/>
<ellipse cx="5.87536" cy="5.88095" rx="5.87536" ry="5.88095" transform="matrix(0.965855 0.259085 -0.258554 0.965997 189.395 74.208)" fill="black"/>
<path d="M77.2019 181.931C99.7647 181.931 118.051 163.621 118.051 141.039C118.051 118.458 99.7647 100.148 77.2019 100.148C54.6391 100.148 36.3527 118.458 36.3527 141.039C36.3527 163.621 54.6391 181.931 77.2019 181.931Z" fill="#857BFF" stroke="white" stroke-width="4.67739"/>
<mask id="path-14-outside-2_2822_21572" maskUnits="userSpaceOnUse" x="0" y="145.562" width="155" height="83" fill="black">
<rect fill="white" y="145.562" width="155" height="83"/>
<path fill-rule="evenodd" clip-rule="evenodd" d="M5 152.385C5 151.378 5.81658 150.562 6.82389 150.562H20.0471C21.0544 150.562 21.871 151.378 21.871 152.385V156.093L73.0339 172.77C75.7888 173.668 78.7577 173.668 81.5126 172.77L133.125 155.946V152.385C133.125 151.378 133.942 150.562 134.949 150.562H148.172C149.179 150.562 149.996 151.378 149.996 152.385V221.317C149.996 222.324 149.179 223.141 148.172 223.141H134.949C133.942 223.141 133.125 222.324 133.125 221.317V217.675L81.591 200.532C78.788 199.6 75.7585 199.6 72.9554 200.532L21.871 217.526V221.317C21.871 222.324 21.0544 223.141 20.0471 223.141H6.82389C5.81658 223.141 5 222.324 5 221.317V152.385Z"/>
</mask>
<path d="M21.871 156.093H17.1936V159.488L20.4214 160.54L21.871 156.093ZM73.0339 172.77L74.4835 168.323L73.0339 172.77ZM81.5126 172.77L82.9621 177.217H82.9621L81.5126 172.77ZM133.125 155.946L134.575 160.394L137.802 159.341V155.946H133.125ZM133.125 217.675H137.802V214.302L134.601 213.237L133.125 217.675ZM81.591 200.532L83.0675 196.094V196.094L81.591 200.532ZM72.9554 200.532L74.4318 204.971H74.4318L72.9554 200.532ZM21.871 217.526L20.3945 213.088L17.1936 214.152V217.526H21.871ZM6.82389 145.884C3.23335 145.884 0.322613 148.795 0.322613 152.385H9.67739C9.67739 153.961 8.39981 155.239 6.82389 155.239V145.884ZM20.0471 145.884H6.82389V155.239H20.0471V145.884ZM26.5483 152.385C26.5483 148.795 23.6376 145.884 20.0471 145.884V155.239C18.4711 155.239 17.1936 153.961 17.1936 152.385H26.5483ZM26.5483 156.093V152.385H17.1936V156.093H26.5483ZM74.4835 168.323L23.3205 151.646L20.4214 160.54L71.5843 177.217L74.4835 168.323ZM80.063 168.323C78.2501 168.914 76.2964 168.914 74.4835 168.323L71.5843 177.217C75.2812 178.422 79.2653 178.422 82.9621 177.217L80.063 168.323ZM131.675 151.499L80.063 168.323L82.9621 177.217L134.575 160.394L131.675 151.499ZM137.802 155.946V152.385H128.448V155.946H137.802ZM137.802 152.385C137.802 153.961 136.525 155.239 134.949 155.239V145.884C131.358 145.884 128.448 148.795 128.448 152.385H137.802ZM134.949 155.239H148.172V145.884H134.949V155.239ZM148.172 155.239C146.596 155.239 145.319 153.961 145.319 152.385H154.673C154.673 148.795 151.763 145.884 148.172 145.884V155.239ZM145.319 152.385V221.317H154.673V152.385H145.319ZM145.319 221.317C145.319 219.741 146.596 218.463 148.172 218.463V227.818C151.763 227.818 154.673 224.907 154.673 221.317H145.319ZM148.172 218.463H134.949V227.818H148.172V218.463ZM134.949 218.463C136.525 218.463 137.802 219.741 137.802 221.317H128.448C128.448 224.907 131.358 227.818 134.949 227.818V218.463ZM137.802 221.317V217.675H128.448V221.317H137.802ZM80.1146 204.971L131.649 222.114L134.601 213.237L83.0675 196.094L80.1146 204.971ZM74.4318 204.971C76.2764 204.357 78.2701 204.357 80.1146 204.971L83.0675 196.094C79.306 194.843 75.2405 194.843 71.479 196.094L74.4318 204.971ZM23.3474 221.964L74.4318 204.971L71.479 196.094L20.3945 213.088L23.3474 221.964ZM26.5483 221.317V217.526H17.1936V221.317H26.5483ZM20.0471 227.818C23.6376 227.818 26.5483 224.907 26.5483 221.317H17.1936C17.1936 219.741 18.4711 218.463 20.0471 218.463V227.818ZM6.82389 227.818H20.0471V218.463H6.82389V227.818ZM0.322613 221.317C0.322613 224.907 3.23334 227.818 6.82389 227.818V218.463C8.39983 218.463 9.67739 219.741 9.67739 221.317H0.322613ZM0.322613 152.385V221.317H9.67739V152.385H0.322613Z" fill="white" mask="url(#path-14-outside-2_2822_21572)"/>
<ellipse cx="71.3981" cy="121.58" rx="10.2731" ry="10.6653" fill="white"/>
<ellipse cx="92.1313" cy="121.58" rx="10.4633" ry="10.6653" fill="white"/>
<ellipse cx="74.4354" cy="118.915" rx="6.08775" ry="6.47536" fill="#1E1E1E"/>
<ellipse cx="95.3713" cy="118.915" rx="5.70727" ry="6.47536" fill="#1E1E1E"/>
<path d="M9.10547 151.932L73.0339 172.77C75.7888 173.668 78.7577 173.668 81.5126 172.77L145.441 151.932V221.772L81.591 200.532C78.788 199.6 75.7585 199.6 72.9554 200.532L9.10547 221.772V151.932Z" fill="#857BFF"/>
<rect x="5" y="150.562" width="16.871" height="72.5792" rx="1.82389" fill="#695DFF"/>
<rect x="133.125" y="150.562" width="16.871" height="72.5792" rx="1.82389" fill="#695DFF"/>
<path d="M44.1319 164.449C49.6453 164.449 54.1103 159.976 54.1103 154.463C54.1103 148.949 49.6453 144.476 44.1319 144.476C38.6186 144.476 34.1535 148.949 34.1535 154.463C34.1535 159.976 38.6186 164.449 44.1319 164.449Z" fill="#857BFF" stroke="white" stroke-width="4.67739"/>
<path d="M110.245 164.449C115.759 164.449 120.224 159.976 120.224 154.463C120.224 148.949 115.759 144.476 110.245 144.476C104.732 144.476 100.267 148.949 100.267 154.463C100.267 159.976 104.732 164.449 110.245 164.449Z" fill="#857BFF" stroke="white" stroke-width="4.67739"/>
<mask id="path-25-outside-3_2822_21572" maskUnits="userSpaceOnUse" x="166.039" y="173.286" width="87" height="105" fill="black">
<rect fill="white" x="166.039" y="173.286" width="87" height="105"/>
<path fill-rule="evenodd" clip-rule="evenodd" d="M220.309 254.456C236.692 249.708 248.671 234.577 248.671 216.645C248.671 194.908 231.068 177.286 209.355 177.286C187.641 177.286 170.039 194.908 170.039 216.645C170.039 234.094 181.38 248.89 197.086 254.05V263.805H197.083C191.691 263.805 187.32 266.052 187.32 268.824C187.32 271.596 191.691 273.843 197.083 273.843C202.475 273.843 206.846 271.596 206.846 268.824C206.846 267.17 205.291 265.703 202.891 264.789V255.475C204.994 255.823 207.153 256.004 209.355 256.004C211.1 256.004 212.819 255.89 214.504 255.67V265.249C212.707 266.159 211.594 267.424 211.594 268.824C211.594 271.596 215.965 273.843 221.357 273.843C226.749 273.843 231.12 271.596 231.12 268.824C231.12 266.052 226.749 263.805 221.357 263.805C221.003 263.805 220.653 263.814 220.309 263.833V254.456Z"/>
</mask>
<path fill-rule="evenodd" clip-rule="evenodd" d="M220.309 254.456C236.692 249.708 248.671 234.577 248.671 216.645C248.671 194.908 231.068 177.286 209.355 177.286C187.641 177.286 170.039 194.908 170.039 216.645C170.039 234.094 181.38 248.89 197.086 254.05V263.805H197.083C191.691 263.805 187.32 266.052 187.32 268.824C187.32 271.596 191.691 273.843 197.083 273.843C202.475 273.843 206.846 271.596 206.846 268.824C206.846 267.17 205.291 265.703 202.891 264.789V255.475C204.994 255.823 207.153 256.004 209.355 256.004C211.1 256.004 212.819 255.89 214.504 255.67V265.249C212.707 266.159 211.594 267.424 211.594 268.824C211.594 271.596 215.965 273.843 221.357 273.843C226.749 273.843 231.12 271.596 231.12 268.824C231.12 266.052 226.749 263.805 221.357 263.805C221.003 263.805 220.653 263.814 220.309 263.833V254.456Z" fill="#857BFF"/>
<path d="M220.309 254.456L219.207 250.655L216.351 251.483V254.456H220.309ZM197.086 254.05H201.044V251.184L198.321 250.29L197.086 254.05ZM197.086 263.805V267.763H201.044V263.805H197.086ZM202.891 264.789H198.933V267.516L201.482 268.487L202.891 264.789ZM202.891 255.475L203.538 251.57L198.933 250.808V255.475H202.891ZM214.504 255.67H218.462V251.16L213.99 251.745L214.504 255.67ZM214.504 265.249L216.293 268.78L218.462 267.68V265.249H214.504ZM220.309 263.833H216.351V268.014L220.526 267.785L220.309 263.833ZM244.713 216.645C244.713 232.771 233.942 246.384 219.207 250.655L221.411 258.258C239.443 253.032 252.629 236.383 252.629 216.645H244.713ZM209.355 181.244C228.878 181.244 244.713 197.09 244.713 216.645H252.629C252.629 192.726 233.258 173.328 209.355 173.328V181.244ZM173.997 216.645C173.997 197.09 189.831 181.244 209.355 181.244V173.328C185.451 173.328 166.081 192.726 166.081 216.645H173.997ZM198.321 250.29C184.194 245.649 173.997 232.336 173.997 216.645H166.081C166.081 235.852 178.567 252.132 195.851 257.81L198.321 250.29ZM193.128 254.05V263.805H201.044V254.05H193.128ZM197.086 259.847H197.083V267.763H197.086V259.847ZM197.083 259.847C193.891 259.847 190.804 260.504 188.37 261.755C186.143 262.9 183.362 265.189 183.362 268.824H191.278C191.278 269.687 190.683 269.466 191.989 268.795C193.089 268.229 194.884 267.763 197.083 267.763V259.847ZM183.362 268.824C183.362 272.459 186.143 274.748 188.37 275.893C190.804 277.144 193.891 277.801 197.083 277.801V269.885C194.884 269.885 193.089 269.418 191.989 268.852C190.683 268.181 191.278 267.96 191.278 268.824H183.362ZM197.083 277.801C200.276 277.801 203.363 277.144 205.796 275.893C208.024 274.748 210.804 272.459 210.804 268.824H202.888C202.888 267.96 203.484 268.181 202.177 268.852C201.077 269.418 199.283 269.885 197.083 269.885V277.801ZM210.804 268.824C210.804 266.668 209.774 264.935 208.565 263.728C207.372 262.538 205.853 261.682 204.3 261.09L201.482 268.487C202.328 268.81 202.787 269.145 202.972 269.33C203.141 269.498 202.888 269.326 202.888 268.824H210.804ZM206.849 264.789V255.475H198.933V264.789H206.849ZM209.355 252.046C207.371 252.046 205.428 251.883 203.538 251.57L202.244 259.38C204.56 259.763 206.936 259.962 209.355 259.962V252.046ZM213.99 251.745C212.475 251.944 210.928 252.046 209.355 252.046V259.962C211.272 259.962 213.163 259.837 215.018 259.594L213.99 251.745ZM218.462 265.249V255.67H210.546V265.249H218.462ZM215.552 268.824C215.552 269.01 215.513 269.168 215.468 269.279C215.427 269.382 215.393 269.414 215.419 269.383C215.446 269.351 215.52 269.271 215.67 269.158C215.819 269.046 216.024 268.916 216.293 268.78L212.715 261.718C210.465 262.858 207.636 265.155 207.636 268.824H215.552ZM221.357 269.885C219.157 269.885 217.363 269.418 216.263 268.852C214.956 268.181 215.552 267.96 215.552 268.824H207.636C207.636 272.459 210.417 274.748 212.644 275.893C215.077 277.144 218.164 277.801 221.357 277.801V269.885ZM227.162 268.824C227.162 267.96 227.757 268.181 226.451 268.852C225.351 269.418 223.556 269.885 221.357 269.885V277.801C224.549 277.801 227.636 277.144 230.07 275.893C232.297 274.748 235.078 272.459 235.078 268.824H227.162ZM221.357 267.763C223.556 267.763 225.351 268.229 226.451 268.795C227.757 269.466 227.162 269.687 227.162 268.824H235.078C235.078 265.189 232.297 262.9 230.07 261.755C227.636 260.504 224.549 259.847 221.357 259.847V267.763ZM220.526 267.785C220.798 267.77 221.075 267.763 221.357 267.763V259.847C220.931 259.847 220.509 259.858 220.092 259.881L220.526 267.785ZM216.351 254.456V263.833H224.267V254.456H216.351Z" fill="white" mask="url(#path-25-outside-3_2822_21572)"/>
<path d="M192.543 167.149L194.372 167.906L192.543 167.149C192.288 167.767 192.067 168.397 191.881 169.037C191.319 170.973 191.971 172.778 193.222 173.96C194.437 175.107 196.194 175.666 197.974 175.399L201.978 174.799C207.049 174.04 212.205 174.053 217.272 174.837L220.726 175.372C222.51 175.648 224.275 175.093 225.495 173.946C226.752 172.764 227.407 170.954 226.841 169.012C226.656 168.381 226.438 167.759 226.185 167.149C225.271 164.938 223.93 162.929 222.239 161.237C220.549 159.544 218.542 158.202 216.332 157.286C214.123 156.369 211.756 155.898 209.364 155.898C206.973 155.898 204.605 156.369 202.396 157.286C200.187 158.202 198.18 159.544 196.49 161.237C194.799 162.929 193.458 164.938 192.543 167.149Z" fill="#857BFF" stroke="white" stroke-width="3.95797"/>
<ellipse cx="186.865" cy="205.906" rx="8.71669" ry="9.04948" fill="white"/>
<ellipse cx="204.46" cy="205.906" rx="8.87811" ry="9.04948" fill="white"/>
<ellipse cx="201.054" cy="205.739" rx="4.84261" ry="5.49432" fill="black"/>
<ellipse cx="183.272" cy="205.739" rx="4.84261" ry="5.49432" fill="black"/>
</svg>
