<svg width="204" height="208" viewBox="0 0 204 208" fill="none" xmlns="http://www.w3.org/2000/svg">
<mask id="path-1-outside-1_748_4841" maskUnits="userSpaceOnUse" x="0" y="-0.15625" width="204" height="208" fill="black">
<rect fill="white" y="-0.15625" width="204" height="208"/>
<path fill-rule="evenodd" clip-rule="evenodd" d="M64.633 15.2351C68.9513 18.258 67.8244 24.4421 63.2719 27.0993L55.6466 31.55C45.6264 37.3986 36.5491 44.7301 28.7231 53.2954L23.5827 58.9214C20.0156 62.8256 13.7094 62.6077 11.6872 57.7212C11.2006 56.5454 10.7769 55.342 10.4187 54.1159C9.11662 49.659 8.70515 44.9894 9.20777 40.3735C9.71038 35.7576 11.1172 31.2859 13.348 27.2138C15.5788 23.1416 18.5898 19.5487 22.2091 16.6402C25.8284 13.7317 29.9852 11.5645 34.442 10.2624C38.8989 8.96037 43.5686 8.5489 48.1844 9.05152C52.8003 9.55413 57.272 10.961 61.3442 13.1918C62.4791 13.8135 63.5769 14.4959 64.633 15.2351ZM180.119 58.9249C183.686 62.8287 189.991 62.611 192.014 57.7251C192.501 56.549 192.925 55.3453 193.283 54.1189C194.585 49.6621 194.997 44.9925 194.495 40.3766C193.993 35.7606 192.586 31.2888 190.356 27.2165C188.125 23.1442 185.115 19.551 181.496 16.6422C177.876 13.7335 173.72 11.566 169.263 10.2636C164.806 8.96118 160.137 8.54935 155.521 9.05161C150.905 9.55388 146.433 10.9604 142.361 13.1909C141.225 13.8127 140.127 14.4952 139.071 15.2345C134.753 18.257 135.879 24.4407 140.431 27.0986L148.065 31.5566C158.078 37.4029 167.148 44.73 174.969 53.2892L180.119 58.9249ZM186.362 113.184C186.362 160.494 148.01 198.846 100.7 198.846C53.3904 198.846 15.0382 160.494 15.0382 113.184C15.0382 65.874 53.3904 27.5219 100.7 27.5219C148.01 27.5219 186.362 65.874 186.362 113.184Z"/>
</mask>
<path fill-rule="evenodd" clip-rule="evenodd" d="M64.633 15.2351C68.9513 18.258 67.8244 24.4421 63.2719 27.0993L55.6466 31.55C45.6264 37.3986 36.5491 44.7301 28.7231 53.2954L23.5827 58.9214C20.0156 62.8256 13.7094 62.6077 11.6872 57.7212C11.2006 56.5454 10.7769 55.342 10.4187 54.1159C9.11662 49.659 8.70515 44.9894 9.20777 40.3735C9.71038 35.7576 11.1172 31.2859 13.348 27.2138C15.5788 23.1416 18.5898 19.5487 22.2091 16.6402C25.8284 13.7317 29.9852 11.5645 34.442 10.2624C38.8989 8.96037 43.5686 8.5489 48.1844 9.05152C52.8003 9.55413 57.272 10.961 61.3442 13.1918C62.4791 13.8135 63.5769 14.4959 64.633 15.2351ZM180.119 58.9249C183.686 62.8287 189.991 62.611 192.014 57.7251C192.501 56.549 192.925 55.3453 193.283 54.1189C194.585 49.6621 194.997 44.9925 194.495 40.3766C193.993 35.7606 192.586 31.2888 190.356 27.2165C188.125 23.1442 185.115 19.551 181.496 16.6422C177.876 13.7335 173.72 11.566 169.263 10.2636C164.806 8.96118 160.137 8.54935 155.521 9.05161C150.905 9.55388 146.433 10.9604 142.361 13.1909C141.225 13.8127 140.127 14.4952 139.071 15.2345C134.753 18.257 135.879 24.4407 140.431 27.0986L148.065 31.5566C158.078 37.4029 167.148 44.73 174.969 53.2892L180.119 58.9249ZM186.362 113.184C186.362 160.494 148.01 198.846 100.7 198.846C53.3904 198.846 15.0382 160.494 15.0382 113.184C15.0382 65.874 53.3904 27.5219 100.7 27.5219C148.01 27.5219 186.362 65.874 186.362 113.184Z" fill="currentColor"/>
<path d="M63.2719 27.0993L58.9248 19.6514L63.2719 27.0993ZM64.633 15.2351L69.5783 8.17033L69.5783 8.17033L64.633 15.2351ZM55.6466 31.55L59.9938 38.9979L55.6466 31.55ZM28.7231 53.2954L22.3567 47.4785L28.7231 53.2954ZM23.5827 58.9214L29.9492 64.7383H29.9492L23.5827 58.9214ZM11.6872 57.7212L19.6554 54.4235L19.6554 54.4235L11.6872 57.7212ZM10.4187 54.1159L2.14102 56.5342H2.14103L10.4187 54.1159ZM9.20777 40.3735L17.7808 41.307L9.20777 40.3735ZM13.348 27.2138L20.9112 31.3569H20.9112L13.348 27.2138ZM22.2091 16.6402L16.8072 9.91805L16.8072 9.91805L22.2091 16.6402ZM34.442 10.2624L36.8603 18.5401L34.442 10.2624ZM48.1844 9.05152L49.1179 0.478511L48.1844 9.05152ZM61.3442 13.1918L65.4874 5.62858L65.4874 5.62858L61.3442 13.1918ZM192.014 57.7251L199.982 61.0236L199.982 61.0236L192.014 57.7251ZM180.119 58.9249L186.485 53.1078L186.485 53.1078L180.119 58.9249ZM193.283 54.1189L185.006 51.6999L185.006 51.7L193.283 54.1189ZM194.495 40.3766L185.922 41.3094V41.3094L194.495 40.3766ZM190.356 27.2165L197.919 23.0739L197.919 23.0739L190.356 27.2165ZM181.496 16.6422L186.898 9.92054L186.898 9.92053L181.496 16.6422ZM169.263 10.2636L171.682 1.9861L169.263 10.2636ZM155.521 9.05161L154.588 0.478539L155.521 9.05161ZM142.361 13.1909L138.218 5.62736L138.218 5.62736L142.361 13.1909ZM139.071 15.2345L144.016 22.2996V22.2996L139.071 15.2345ZM140.431 27.0986L144.779 19.6515V19.6515L140.431 27.0986ZM148.065 31.5566L143.717 39.0036L148.065 31.5566ZM174.969 53.2892L181.335 47.4721L174.969 53.2892ZM67.6191 34.5471C72.1155 31.9226 75.1388 27.4373 75.8219 22.4819C76.535 17.3095 74.6181 11.6982 69.5783 8.17033L59.6876 22.2999C59.447 22.1315 59.1182 21.7844 58.9072 21.2716C58.7098 20.7918 58.7013 20.3794 58.7361 20.1267C58.7973 19.6834 58.9809 19.6187 58.9248 19.6514L67.6191 34.5471ZM59.9938 38.9979L67.6191 34.5471L58.9248 19.6514L51.2995 24.1022L59.9938 38.9979ZM35.0895 59.1124C42.3286 51.1895 50.7251 44.4078 59.9938 38.9979L51.2995 24.1022C40.5277 30.3895 30.7696 38.2708 22.3567 47.4785L35.0895 59.1124ZM29.9492 64.7383L35.0895 59.1124L22.3567 47.4785L17.2163 53.1045L29.9492 64.7383ZM3.71889 61.0188C6.07888 66.7214 11.1643 69.8086 16.3857 70.2154C21.3861 70.605 26.4261 68.5942 29.9492 64.7383L17.2163 53.1045C17.1722 53.1528 17.2756 52.9851 17.7255 53.0202C17.9818 53.0401 18.3861 53.1373 18.8154 53.4354C19.2745 53.7541 19.5433 54.1525 19.6554 54.4235L3.71889 61.0188ZM2.14103 56.5342C2.5866 58.0593 3.11362 59.5563 3.71889 61.0188L19.6554 54.4235C19.2875 53.5346 18.9672 52.6247 18.6963 51.6976L2.14103 56.5342ZM0.634761 39.44C0.00955677 45.1817 0.521386 50.9903 2.14102 56.5342L18.6963 51.6976C17.7119 48.3278 17.4007 44.797 17.7808 41.307L0.634761 39.44ZM5.78483 23.0706C3.00996 28.136 1.25997 33.6983 0.634761 39.44L17.7808 41.307C18.1608 37.8169 19.2245 34.4359 20.9112 31.3569L5.78483 23.0706ZM16.8072 9.91805C12.3051 13.536 8.55969 18.0052 5.78483 23.0706L20.9112 31.3569C22.5979 28.278 24.8745 25.5614 27.6111 23.3623L16.8072 9.91805ZM32.0237 1.98478C26.4798 3.60441 21.3092 6.30014 16.8072 9.91805L27.6111 23.3623C30.3476 21.1632 33.4905 19.5246 36.8603 18.5401L32.0237 1.98478ZM49.1179 0.478511C43.3762 -0.146694 37.5676 0.365137 32.0237 1.98478L36.8603 18.5401C40.2302 17.5556 43.7609 17.2445 47.2509 17.6245L49.1179 0.478511ZM65.4874 5.62858C60.422 2.85371 54.8596 1.10372 49.1179 0.478511L47.2509 17.6245C50.741 18.0045 54.122 19.0683 57.201 20.755L65.4874 5.62858ZM69.5783 8.17033C68.2646 7.25077 66.8992 6.40197 65.4874 5.62858L57.201 20.755C58.0591 21.2251 58.8891 21.741 59.6876 22.2999L69.5783 8.17033ZM184.046 54.4266C184.158 54.1555 184.427 53.7572 184.886 53.4386C185.315 53.1406 185.719 53.0434 185.976 53.0235C186.426 52.9884 186.529 53.1561 186.485 53.1078L173.752 64.742C177.275 68.5975 182.315 70.6082 187.315 70.2188C192.536 69.8121 197.621 66.7255 199.982 61.0236L184.046 54.4266ZM185.006 51.7C184.735 52.6273 184.414 53.5374 184.046 54.4266L199.982 61.0236C200.587 59.5607 201.115 58.0634 201.561 56.5377L185.006 51.7ZM185.922 41.3094C186.302 44.7995 185.99 48.3302 185.006 51.6999L201.561 56.5378C203.181 50.994 203.693 45.1855 203.068 39.4437L185.922 41.3094ZM182.792 31.3591C184.479 34.4382 185.542 37.8193 185.922 41.3094L203.068 39.4437C202.443 33.702 200.694 28.1395 197.919 23.0739L182.792 31.3591ZM176.093 23.3639C178.829 25.5633 181.106 28.28 182.792 31.3591L197.919 23.0739C195.145 18.0083 191.4 13.5388 186.898 9.92054L176.093 23.3639ZM166.844 18.5411C170.214 19.5258 173.357 21.1646 176.093 23.364L186.898 9.92053C182.396 6.30229 177.226 3.60616 171.682 1.9861L166.844 18.5411ZM156.454 17.6247C159.944 17.2449 163.474 17.5563 166.844 18.5411L171.682 1.9861C166.138 0.366042 160.33 -0.146229 154.588 0.478539L156.454 17.6247ZM146.503 20.7544C149.582 19.0679 152.964 18.0044 156.454 17.6247L154.588 0.478539C148.846 1.10331 143.284 2.85288 138.218 5.62736L146.503 20.7544ZM144.016 22.2996C144.815 21.7406 145.645 21.2245 146.503 20.7544L138.218 5.62736C136.806 6.40083 135.44 7.24976 134.126 8.16952L144.016 22.2996ZM144.779 19.6515C144.723 19.6187 144.906 19.6834 144.968 20.1267C145.002 20.3794 144.994 20.7917 144.796 21.2714C144.585 21.7841 144.257 22.1311 144.016 22.2996L134.126 8.16951C129.086 11.6969 127.169 17.3077 127.881 22.4799C128.564 27.4351 131.586 31.9206 136.082 34.5456L144.779 19.6515ZM152.414 24.1095L144.779 19.6515L136.082 34.5456L143.717 39.0036L152.414 24.1095ZM181.335 47.4721C172.928 38.2709 163.177 30.3943 152.414 24.1095L143.717 39.0036C152.978 44.4115 161.368 51.1891 168.603 59.1063L181.335 47.4721ZM186.485 53.1078L181.335 47.4721L168.603 59.1063L173.752 64.742L186.485 53.1078ZM100.7 207.469C152.773 207.469 194.986 165.256 194.986 113.184H177.738C177.738 155.731 143.247 190.222 100.7 190.222V207.469ZM6.41456 113.184C6.41456 165.256 48.6276 207.469 100.7 207.469V190.222C58.1531 190.222 23.6619 155.731 23.6619 113.184H6.41456ZM100.7 18.8982C48.6276 18.8982 6.41456 61.1113 6.41456 113.184H23.6619C23.6619 70.6368 58.1531 36.1456 100.7 36.1456V18.8982ZM194.986 113.184C194.986 61.1113 152.773 18.8982 100.7 18.8982V36.1456C143.247 36.1456 177.738 70.6368 177.738 113.184H194.986Z" fill="white" mask="url(#path-1-outside-1_748_4841)"/>
<ellipse cx="61.6717" cy="80.2716" rx="18.992" ry="19.6955" fill="white"/>
<ellipse cx="100.008" cy="80.2716" rx="19.3438" ry="19.6955" fill="white"/>
<ellipse cx="104.965" cy="74.5205" rx="10.5511" ry="11.958" fill="currentColor"/>
<ellipse cx="66.2347" cy="74.5205" rx="10.5511" ry="11.958" fill="currentColor"/>
</svg>
