<svg width="222" height="212" viewBox="0 0 222 212" fill="none" xmlns="http://www.w3.org/2000/svg">
<mask id="path-1-outside-1_748_4915" maskUnits="userSpaceOnUse" x="0" y="-0.0332031" width="222" height="212" fill="black">
<rect fill="white" y="-0.0332031" width="222" height="212"/>
<path fill-rule="evenodd" clip-rule="evenodd" d="M37.8728 14.8581C37.8728 11.6044 40.5105 8.9668 43.7641 8.9668H76.7555C80.0092 8.9668 82.6468 11.6044 82.6468 14.8581V18.9825H99.137C104.738 18.9825 109.426 22.89 110.623 28.1275C111.821 22.89 116.509 18.9825 122.11 18.9825H139.211V14.8581C139.211 11.6044 141.849 8.9668 145.103 8.9668H178.094C181.348 8.9668 183.985 11.6044 183.985 14.8581V18.9825H200.464C206.971 18.9825 212.247 24.2577 212.247 30.7651V137.987C212.247 144.494 206.971 149.77 200.464 149.77H122.11C120.657 149.77 119.266 149.507 117.981 149.026V184.009C147.538 184.58 170.426 188.551 170.426 193.364C170.426 198.57 143.654 202.79 110.629 202.79C77.6045 202.79 50.8325 198.57 50.8325 193.364C50.8325 188.552 73.7082 184.582 103.253 184.009V149.031C101.972 149.508 100.585 149.77 99.137 149.77H20.7826C14.2753 149.77 9 144.494 9 137.987V30.7651C9 24.2577 14.2753 18.9825 20.7826 18.9825H37.8728V14.8581Z"/>
</mask>
<path fill-rule="evenodd" clip-rule="evenodd" d="M37.8728 14.8581C37.8728 11.6044 40.5105 8.9668 43.7641 8.9668H76.7555C80.0092 8.9668 82.6468 11.6044 82.6468 14.8581V18.9825H99.137C104.738 18.9825 109.426 22.89 110.623 28.1275C111.821 22.89 116.509 18.9825 122.11 18.9825H139.211V14.8581C139.211 11.6044 141.849 8.9668 145.103 8.9668H178.094C181.348 8.9668 183.985 11.6044 183.985 14.8581V18.9825H200.464C206.971 18.9825 212.247 24.2577 212.247 30.7651V137.987C212.247 144.494 206.971 149.77 200.464 149.77H122.11C120.657 149.77 119.266 149.507 117.981 149.026V184.009C147.538 184.58 170.426 188.551 170.426 193.364C170.426 198.57 143.654 202.79 110.629 202.79C77.6045 202.79 50.8325 198.57 50.8325 193.364C50.8325 188.552 73.7082 184.582 103.253 184.009V149.031C101.972 149.508 100.585 149.77 99.137 149.77H20.7826C14.2753 149.77 9 144.494 9 137.987V30.7651C9 24.2577 14.2753 18.9825 20.7826 18.9825H37.8728V14.8581Z" fill="currentColor"/>
<path d="M82.6468 18.9825H73.8098V27.8195H82.6468V18.9825ZM110.623 28.1275L102.009 30.0975H119.238L110.623 28.1275ZM139.211 18.9825V27.8195H148.048V18.9825H139.211ZM183.985 18.9825H175.148V27.8195H183.985V18.9825ZM117.981 149.026L121.078 140.749L109.144 136.284V149.026H117.981ZM117.981 184.009H109.144V192.677L117.81 192.844L117.981 184.009ZM103.253 184.009L103.424 192.845L112.09 192.677V184.009H103.253ZM103.253 149.031H112.09V136.305L100.166 140.751L103.253 149.031ZM37.8728 18.9825V27.8195H46.7098V18.9825H37.8728ZM43.7641 0.129833C35.63 0.129833 29.0359 6.7239 29.0359 14.8581H46.7098C46.7098 16.4849 45.391 17.8038 43.7641 17.8038V0.129833ZM76.7555 0.129833H43.7641V17.8038H76.7555V0.129833ZM91.4837 14.8581C91.4837 6.72391 84.8897 0.129833 76.7555 0.129833V17.8038C75.1286 17.8038 73.8098 16.4849 73.8098 14.8581H91.4837ZM91.4837 18.9825V14.8581H73.8098V18.9825H91.4837ZM99.137 10.1455H82.6468V27.8195H99.137V10.1455ZM119.238 26.1574C117.142 16.9907 108.949 10.1455 99.137 10.1455V27.8195C100.526 27.8195 101.71 28.7893 102.009 30.0975L119.238 26.1574ZM122.11 10.1455C112.297 10.1455 104.105 16.9907 102.009 26.1574L119.238 30.0975C119.537 28.7893 120.721 27.8195 122.11 27.8195V10.1455ZM139.211 10.1455H122.11V27.8195H139.211V10.1455ZM148.048 18.9825V14.8581H130.374V18.9825H148.048ZM148.048 14.8581C148.048 16.485 146.729 17.8038 145.103 17.8038V0.129833C136.968 0.129833 130.374 6.72389 130.374 14.8581H148.048ZM145.103 17.8038H178.094V0.129833H145.103V17.8038ZM178.094 17.8038C176.467 17.8038 175.148 16.485 175.148 14.8581H192.822C192.822 6.7239 186.228 0.129833 178.094 0.129833V17.8038ZM175.148 14.8581V18.9825H192.822V14.8581H175.148ZM200.464 10.1455H183.985V27.8195H200.464V10.1455ZM221.084 30.7651C221.084 19.3772 211.852 10.1455 200.464 10.1455V27.8195C202.091 27.8195 203.41 29.1383 203.41 30.7651H221.084ZM221.084 137.987V30.7651H203.41V137.987H221.084ZM200.464 158.607C211.852 158.607 221.084 149.375 221.084 137.987H203.41C203.41 139.614 202.091 140.933 200.464 140.933V158.607ZM122.11 158.607H200.464V140.933H122.11V158.607ZM114.884 157.303C117.144 158.148 119.584 158.607 122.11 158.607V140.933C121.73 140.933 121.387 140.865 121.078 140.749L114.884 157.303ZM126.818 184.009V149.026H109.144V184.009H126.818ZM179.263 193.364C179.263 188.989 176.646 186.153 175.046 184.819C173.358 183.41 171.398 182.448 169.711 181.764C166.254 180.361 161.762 179.267 156.827 178.394C146.813 176.622 133.214 175.465 118.152 175.174L117.81 192.844C132.305 193.124 144.928 194.237 153.748 195.798C158.23 196.59 161.307 197.427 163.065 198.141C163.986 198.514 164.044 198.657 163.723 198.389C163.491 198.195 161.589 196.537 161.589 193.364H179.263ZM110.629 211.627C127.455 211.627 142.886 210.556 154.288 208.759C159.919 207.871 164.972 206.746 168.813 205.314C170.684 204.617 172.797 203.657 174.604 202.265C176.238 201.006 179.263 198.088 179.263 193.364H161.589C161.589 189.942 163.778 188.295 163.818 188.263C164.032 188.099 163.796 188.323 162.641 188.753C160.431 189.577 156.726 190.482 151.536 191.3C141.295 192.915 126.828 193.954 110.629 193.954V211.627ZM41.9956 193.364C41.9956 198.088 45.021 201.006 46.6545 202.265C48.4615 203.657 50.5744 204.617 52.4456 205.314C56.2869 206.746 61.3394 207.871 66.9706 208.759C78.3722 210.556 93.8033 211.627 110.629 211.627V193.954C94.4305 193.954 79.9632 192.915 69.7226 191.3C64.5328 190.482 60.8281 189.577 58.6178 188.753C57.463 188.323 57.2264 188.099 57.4403 188.263C57.4807 188.295 59.6695 189.942 59.6695 193.364H41.9956ZM103.081 175.174C88.0257 175.466 74.4326 176.624 64.4235 178.395C59.4907 179.268 55.0003 180.362 51.545 181.765C49.8585 182.449 47.8984 183.411 46.2108 184.82C44.6113 186.155 41.9956 188.99 41.9956 193.364H59.6695C59.6695 196.536 57.7686 198.194 57.5356 198.389C57.2143 198.657 57.2722 198.515 58.192 198.141C59.9491 197.428 63.0242 196.592 67.5034 195.799C76.3183 194.239 88.9353 193.126 103.424 192.845L103.081 175.174ZM94.4158 149.031V184.009H112.09V149.031H94.4158ZM99.137 158.607C101.655 158.607 104.086 158.151 106.34 157.311L100.166 140.751C99.8571 140.866 99.515 140.933 99.137 140.933V158.607ZM20.7826 158.607H99.137V140.933H20.7826V158.607ZM0.163036 137.987C0.163036 149.375 9.39474 158.607 20.7826 158.607V140.933C19.1558 140.933 17.837 139.614 17.837 137.987H0.163036ZM0.163036 30.7651V137.987H17.837V30.7651H0.163036ZM20.7826 10.1455C9.39473 10.1455 0.163036 19.3772 0.163036 30.7651H17.837C17.837 29.1383 19.1558 27.8195 20.7826 27.8195V10.1455ZM37.8728 10.1455H20.7826V27.8195H37.8728V10.1455ZM29.0359 14.8581V18.9825H46.7098V14.8581H29.0359Z" fill="white" mask="url(#path-1-outside-1_748_4915)"/>
<circle cx="20.6196" cy="20.6196" r="20.6196" transform="matrix(-1 0 0 1 152.164 38.4219)" fill="white"/>
<circle cx="20.6196" cy="20.6196" r="20.6196" transform="matrix(-1 0 0 1 110.34 38.4219)" fill="white"/>
<circle cx="11.7826" cy="11.7826" r="11.7826" transform="matrix(-1 0 0 1 136.848 42.252)" fill="black"/>
<circle cx="11.7826" cy="11.7826" r="11.7826" transform="matrix(-1 0 0 1 94.4375 42.252)" fill="black"/>
</svg>
