<svg width="282" height="238" viewBox="0 0 282 238" fill="none" xmlns="http://www.w3.org/2000/svg">
<circle cx="140.451" cy="79.4183" r="74.3736" fill="#857BFF" stroke="white" stroke-width="8.51606"/>
<mask id="path-2-outside-1_859_4968" maskUnits="userSpaceOnUse" x="0" y="87.7344" width="282" height="150" fill="black">
<rect fill="white" y="87.7344" width="282" height="150"/>
<path fill-rule="evenodd" clip-rule="evenodd" d="M9 100.055C9 98.2211 10.4867 96.7344 12.3207 96.7344H36.396C38.23 96.7344 39.7167 98.2211 39.7167 100.055V106.794L132.875 137.127C137.886 138.758 143.285 138.758 148.296 137.127L242.276 106.527V100.055C242.276 98.2211 243.762 96.7344 245.596 96.7344H269.672C271.506 96.7344 272.992 98.2211 272.992 100.055V225.413C272.992 227.247 271.506 228.733 269.672 228.733H245.596C243.762 228.733 242.276 227.247 242.276 225.413V218.793L148.439 187.613C143.34 185.918 137.831 185.918 132.732 187.613L39.7167 218.521V225.413C39.7167 227.247 38.23 228.733 36.396 228.733H12.3207C10.4867 228.733 9 227.247 9 225.413V100.055Z"/>
</mask>
<path d="M39.7167 106.794H31.2007V112.978L37.0801 114.892L39.7167 106.794ZM132.875 137.127L130.238 145.224L132.875 137.127ZM148.296 137.127L145.66 129.029H145.66L148.296 137.127ZM242.276 106.527L244.912 114.625L250.792 112.71V106.527H242.276ZM242.276 218.793H250.792V212.649L244.961 210.712L242.276 218.793ZM148.439 187.613L151.125 179.531H151.125L148.439 187.613ZM132.732 187.613L130.047 179.531H130.046L132.732 187.613ZM39.7167 218.521L37.0313 210.439L31.2007 212.376V218.521H39.7167ZM12.3207 88.2183C5.78346 88.2183 0.483941 93.5178 0.483941 100.055H17.5161C17.5161 102.924 15.19 105.25 12.3207 105.25V88.2183ZM36.396 88.2183H12.3207V105.25H36.396V88.2183ZM48.2328 100.055C48.2328 93.5178 42.9333 88.2183 36.396 88.2183V105.25C33.5267 105.25 31.2007 102.924 31.2007 100.055H48.2328ZM48.2328 106.794V100.055H31.2007V106.794H48.2328ZM135.511 129.029L42.3533 98.6968L37.0801 114.892L130.238 145.224L135.511 129.029ZM145.66 129.029C142.362 130.103 138.809 130.103 135.511 129.029L130.238 145.224C136.963 147.414 144.208 147.414 150.933 145.224L145.66 129.029ZM239.639 98.4294L145.66 129.029L150.933 145.224L244.912 114.625L239.639 98.4294ZM250.792 106.527V100.055H233.76V106.527H250.792ZM250.792 100.055C250.792 102.924 248.466 105.25 245.596 105.25V88.2183C239.059 88.2183 233.76 93.5178 233.76 100.055H250.792ZM245.596 105.25H269.672V88.2183H245.596V105.25ZM269.672 105.25C266.802 105.25 264.476 102.924 264.476 100.055H281.508C281.508 93.5179 276.209 88.2183 269.672 88.2183V105.25ZM264.476 100.055V225.413H281.508V100.055H264.476ZM264.476 225.413C264.476 222.543 266.802 220.217 269.672 220.217V237.249C276.209 237.249 281.508 231.95 281.508 225.413H264.476ZM269.672 220.217H245.596V237.249H269.672V220.217ZM245.596 220.217C248.466 220.217 250.792 222.543 250.792 225.413H233.76C233.76 231.95 239.059 237.249 245.596 237.249V220.217ZM250.792 225.413V218.793H233.76V225.413H250.792ZM145.754 195.694L239.59 226.875L244.961 210.712L151.125 179.531L145.754 195.694ZM135.417 195.694C138.773 194.579 142.398 194.579 145.754 195.694L151.125 179.531C144.282 177.257 136.889 177.257 130.047 179.531L135.417 195.694ZM42.4022 226.602L135.417 195.694L130.046 179.531L37.0313 210.439L42.4022 226.602ZM48.2328 225.413V218.521H31.2007V225.413H48.2328ZM36.396 237.249C42.9332 237.249 48.2328 231.95 48.2328 225.413H31.2007C31.2007 222.543 33.5267 220.217 36.396 220.217V237.249ZM12.3207 237.249H36.396V220.217H12.3207V237.249ZM0.483941 225.413C0.483941 231.95 5.78345 237.249 12.3207 237.249V220.217C15.19 220.217 17.5161 222.543 17.5161 225.413H0.483941ZM0.483941 100.055V225.413H17.5161V100.055H0.483941Z" fill="white" mask="url(#path-2-outside-1_859_4968)"/>
<ellipse cx="129.888" cy="44.0335" rx="18.7041" ry="19.3968" fill="white"/>
<ellipse cx="167.636" cy="44.0335" rx="19.0505" ry="19.3968" fill="white"/>
<ellipse cx="135.416" cy="39.1829" rx="11.0839" ry="11.7766" fill="#1E1E1E"/>
<ellipse cx="173.536" cy="39.1829" rx="10.3912" ry="11.7766" fill="#1E1E1E"/>
<path d="M16.4727 99.2266L132.874 137.127C137.885 138.759 143.285 138.759 148.296 137.127L264.697 99.2266V226.244L148.438 187.613C143.34 185.919 137.83 185.919 132.731 187.613L16.4727 226.244V99.2266Z" fill="#857BFF"/>
<rect x="9" y="96.7344" width="30.7167" height="131.999" rx="3.32073" fill="#695DFF"/>
<rect x="242.277" y="96.7344" width="30.7167" height="131.999" rx="3.32073" fill="#695DFF"/>
<circle cx="80.2416" cy="103.831" r="18.1676" fill="#857BFF" stroke="white" stroke-width="8.51606"/>
<circle cx="200.613" cy="103.831" r="18.1676" fill="#857BFF" stroke="white" stroke-width="8.51606"/>
</svg>
