<svg width="186" height="266" viewBox="0 0 186 266" fill="none" xmlns="http://www.w3.org/2000/svg">
<mask id="path-1-outside-1_859_4989" maskUnits="userSpaceOnUse" x="0" y="41.7871" width="186" height="224" fill="black">
<rect fill="white" y="41.7871" width="186" height="224"/>
<path fill-rule="evenodd" clip-rule="evenodd" d="M116.551 215.714C151.605 205.566 177.234 173.228 177.234 134.904C177.234 88.4475 139.573 50.7871 93.1169 50.7871C46.6604 50.7871 9 88.4475 9 134.904C9 172.193 33.2636 203.815 66.864 214.843V235.691H66.8595C55.3233 235.691 45.9714 240.493 45.9714 246.417C45.9714 252.341 55.3233 257.144 66.8595 257.144C78.3956 257.144 87.7476 252.341 87.7476 246.417C87.7476 242.883 84.419 239.748 79.2839 237.794V217.889C83.7844 218.634 88.4054 219.021 93.1169 219.021C96.8501 219.021 100.526 218.778 104.131 218.306V238.778C100.288 240.723 97.9053 243.427 97.9053 246.417C97.9053 252.341 107.257 257.144 118.793 257.144C130.33 257.144 139.682 252.341 139.682 246.417C139.682 240.493 130.33 235.691 118.793 235.691C118.036 235.691 117.288 235.712 116.551 235.752V215.714Z"/>
</mask>
<path fill-rule="evenodd" clip-rule="evenodd" d="M116.551 215.714C151.605 205.566 177.234 173.228 177.234 134.904C177.234 88.4475 139.573 50.7871 93.1169 50.7871C46.6604 50.7871 9 88.4475 9 134.904C9 172.193 33.2636 203.815 66.864 214.843V235.691H66.8595C55.3233 235.691 45.9714 240.493 45.9714 246.417C45.9714 252.341 55.3233 257.144 66.8595 257.144C78.3956 257.144 87.7476 252.341 87.7476 246.417C87.7476 242.883 84.419 239.748 79.2839 237.794V217.889C83.7844 218.634 88.4054 219.021 93.1169 219.021C96.8501 219.021 100.526 218.778 104.131 218.306V238.778C100.288 240.723 97.9053 243.427 97.9053 246.417C97.9053 252.341 107.257 257.144 118.793 257.144C130.33 257.144 139.682 252.341 139.682 246.417C139.682 240.493 130.33 235.691 118.793 235.691C118.036 235.691 117.288 235.712 116.551 235.752V215.714Z" fill="currentColor"/>
<path d="M116.551 215.714L114.196 207.579L108.083 209.349V215.714H116.551ZM66.864 214.843H75.3321V208.71L69.5048 206.797L66.864 214.843ZM66.864 235.691V244.159H75.3321V235.691H66.864ZM79.2839 237.794H70.8158V243.632L76.272 245.708L79.2839 237.794ZM79.2839 217.889L80.6662 209.534L70.8158 207.905V217.889H79.2839ZM104.131 218.306H112.599V208.659L103.033 209.91L104.131 218.306ZM104.131 238.778L107.955 246.333L112.599 243.983V238.778H104.131ZM116.551 235.752H108.083V244.697L117.014 244.208L116.551 235.752ZM168.766 134.904C168.766 169.358 145.726 198.452 114.196 207.579L118.906 223.848C157.483 212.68 185.702 177.099 185.702 134.904H168.766ZM93.1169 59.2553C134.897 59.2553 168.766 93.1244 168.766 134.904H185.702C185.702 83.7707 144.25 42.319 93.1169 42.319V59.2553ZM17.4681 134.904C17.4681 93.1244 51.3373 59.2553 93.1169 59.2553V42.319C41.9836 42.319 0.531851 83.7707 0.531851 134.904H17.4681ZM69.5048 206.797C39.2779 196.876 17.4681 168.426 17.4681 134.904H0.531851C0.531851 175.96 27.2493 210.754 64.2232 222.889L69.5048 206.797ZM58.3958 214.843V235.691H75.3321V214.843H58.3958ZM66.864 227.223H66.8595V244.159H66.864V227.223ZM66.8595 227.223C60.0299 227.223 53.4272 228.626 48.221 231.3C43.4593 233.745 37.5032 238.638 37.5032 246.417H54.4395C54.4395 248.272 53.1594 247.803 55.9576 246.366C58.3114 245.157 62.1528 244.159 66.8595 244.159V227.223ZM37.5032 246.417C37.5032 254.196 43.4593 259.09 48.221 261.535C53.4272 264.209 60.0299 265.612 66.8595 265.612V248.676C62.1528 248.676 58.3114 247.678 55.9576 246.469C53.1594 245.032 54.4395 244.562 54.4395 246.417H37.5032ZM66.8595 265.612C73.689 265.612 80.2917 264.209 85.4979 261.535C90.2596 259.09 96.2157 254.196 96.2157 246.417H79.2794C79.2794 244.562 80.5595 245.032 77.7613 246.469C75.4075 247.678 71.5661 248.676 66.8595 248.676V265.612ZM96.2157 246.417C96.2157 241.803 94.0087 238.097 91.4207 235.517C88.8688 232.972 85.6183 231.144 82.2958 229.88L76.272 245.708C78.0846 246.398 79.0659 247.115 79.4621 247.51C79.8221 247.869 79.2794 247.497 79.2794 246.417H96.2157ZM87.7521 237.794V217.889H70.8158V237.794H87.7521ZM93.1169 210.553C88.8703 210.553 84.7116 210.204 80.6662 209.534L77.9016 226.244C82.8572 227.064 87.9405 227.489 93.1169 227.489V210.553ZM103.033 209.91C99.7915 210.334 96.4819 210.553 93.1169 210.553V227.489C97.2183 227.489 101.261 227.222 105.229 226.703L103.033 209.91ZM112.599 238.778V218.306H95.6628V238.778H112.599ZM106.373 246.417C106.373 246.819 106.289 247.159 106.194 247.397C106.104 247.619 106.031 247.689 106.086 247.623C106.143 247.554 106.303 247.383 106.623 247.142C106.941 246.903 107.379 246.625 107.955 246.333L100.307 231.222C95.4959 233.657 89.4372 238.567 89.4372 246.417H106.373ZM118.793 248.676C114.087 248.676 110.245 247.678 107.892 246.469C105.093 245.032 106.373 244.562 106.373 246.417H89.4372C89.4372 254.196 95.3933 259.09 100.155 261.535C105.361 264.209 111.964 265.612 118.793 265.612V248.676ZM131.213 246.417C131.213 244.562 132.494 245.032 129.695 246.469C127.341 247.678 123.5 248.676 118.793 248.676V265.612C125.623 265.612 132.226 264.209 137.432 261.535C142.194 259.09 148.15 254.196 148.15 246.417H131.213ZM118.793 244.159C123.5 244.159 127.341 245.157 129.695 246.366C132.494 247.803 131.213 248.272 131.213 246.417H148.15C148.15 238.638 142.194 233.745 137.432 231.3C132.226 228.626 125.623 227.223 118.793 227.223V244.159ZM117.014 244.208C117.596 244.176 118.19 244.159 118.793 244.159V227.223C117.882 227.223 116.979 227.248 116.088 227.297L117.014 244.208ZM108.083 215.714V235.752H125.019V215.714H108.083Z" fill="white" mask="url(#path-1-outside-1_859_4989)"/>
<path d="M78.2305 8.03382L79.8508 11.9456L78.2305 8.03382C73.5045 9.99142 69.2103 12.8607 65.5931 16.4779C61.9759 20.095 59.1066 24.3892 57.1491 29.1153C56.6033 30.4329 56.1314 31.7768 55.7346 33.1408C54.5294 37.2833 55.924 41.1465 58.6003 43.6745C61.1985 46.1287 64.9579 47.3249 68.7655 46.7553L77.3515 45.4708C88.1891 43.8494 99.2096 43.8765 110.039 45.5512L117.447 46.6968C121.264 47.2871 125.04 46.0999 127.649 43.6454C130.339 41.1162 131.74 37.2421 130.525 33.088C130.131 31.7421 129.664 30.4158 129.126 29.1153L125.214 30.7356L129.126 29.1153C127.168 24.3892 124.299 20.095 120.682 16.4779C117.064 12.8607 112.77 9.99141 108.044 8.03382C103.318 6.07622 98.2528 5.06866 93.1374 5.06866C88.0219 5.06866 82.9566 6.07622 78.2305 8.03382Z" fill="currentColor" stroke="white" stroke-width="8.46815"/>
<ellipse cx="44.9972" cy="111.955" rx="18.6495" ry="19.3402" fill="white"/>
<ellipse cx="82.6394" cy="111.955" rx="18.9949" ry="19.3402" fill="white"/>
<ellipse cx="75.353" cy="111.6" rx="10.3608" ry="11.7423" fill="currentColor"/>
<ellipse cx="37.314" cy="111.6" rx="10.3608" ry="11.7423" fill="currentColor"/>
</svg>
