<svg width="133" height="133" viewBox="0 0 133 133" fill="none" xmlns="http://www.w3.org/2000/svg">
<circle cx="66.5" cy="66.5" r="66.5" transform="rotate(90 66.5 66.5)" fill="#857BFF"/>
<path d="M66.5 -2.90681e-06C48.8631 -5.21961e-06 31.9486 7.00622 19.4774 19.4774C7.00623 31.9486 -2.13587e-06 48.8631 -2.90681e-06 66.5C-3.67774e-06 84.1369 7.00622 101.051 19.4774 113.523C31.9485 125.994 48.8631 133 66.5 133L66.5 66.5L66.5 -2.90681e-06Z" fill="#857BFF"/>
<path d="M55.2427 117.438C53.0492 117.438 50.9471 117.194 48.9365 116.707C46.9258 116.28 45.2197 115.61 43.8184 114.696L47.6569 104.369C49.302 105.526 51.3127 106.105 53.689 106.105C55.4559 106.105 56.8573 105.496 57.8931 104.277C58.9899 103.12 59.5382 101.353 59.5382 98.9763V49.8061H73.7958V98.8849C73.7958 104.551 72.1811 109.06 68.9519 112.411C65.7226 115.762 61.1529 117.438 55.2427 117.438ZM66.667 42.9515C64.047 42.9515 61.9145 42.1899 60.2694 40.6666C58.6243 39.1434 57.8017 37.2546 57.8017 35.0002C57.8017 32.7458 58.6243 30.8569 60.2694 29.3337C61.9145 27.8105 64.047 27.0488 66.667 27.0488C69.287 27.0488 71.4195 27.78 73.0646 29.2423C74.7097 30.6437 75.5323 32.4716 75.5323 34.726C75.5323 37.1022 74.7097 39.0824 73.0646 40.6666C71.4804 42.1899 69.3479 42.9515 66.667 42.9515Z" fill="#FFF281"/>
</svg>
