<svg width="338" height="305" viewBox="0 0 338 305" fill="none" xmlns="http://www.w3.org/2000/svg">
<mask id="path-1-outside-1_748_5785" maskUnits="userSpaceOnUse" x="171.383" y="53.1875" width="40" height="31" fill="black">
<rect fill="white" x="171.383" y="53.1875" width="40" height="31"/>
<path fill-rule="evenodd" clip-rule="evenodd" d="M204.044 68.295C204.244 68.0854 204.383 67.8505 204.456 67.5908C205.092 65.3402 200.508 62.077 194.22 60.3023C187.931 58.5276 182.318 58.9133 181.683 61.1639C181.625 61.368 181.611 61.5804 181.636 61.7993L179.383 69.2027L201.7 75.9958L204.044 68.295Z"/>
</mask>
<path fill-rule="evenodd" clip-rule="evenodd" d="M204.044 68.295C204.244 68.0854 204.383 67.8505 204.456 67.5908C205.092 65.3402 200.508 62.077 194.22 60.3023C187.931 58.5276 182.318 58.9133 181.683 61.1639C181.625 61.368 181.611 61.5804 181.636 61.7993L179.383 69.2027L201.7 75.9958L204.044 68.295Z" fill="currentColor"/>
<path d="M204.456 67.5908L198.797 65.9938L198.797 65.9938L204.456 67.5908ZM204.044 68.295L199.783 64.2434L198.824 65.2517L198.419 66.5828L204.044 68.295ZM194.22 60.3023L195.817 54.6433L194.22 60.3023ZM181.683 61.1639L176.024 59.5669L176.024 59.5669L181.683 61.1639ZM181.636 61.7993L187.261 63.5115L187.619 62.3362L187.476 61.1161L181.636 61.7993ZM179.383 69.2027L173.758 67.4905L172.045 73.1157L177.671 74.8279L179.383 69.2027ZM201.7 75.9958L199.988 81.621L205.613 83.3332L207.325 77.7081L201.7 75.9958ZM198.797 65.9938C199.013 65.2311 199.402 64.6445 199.783 64.2434L208.305 72.3467C209.085 71.5264 209.754 70.4699 210.115 69.1877L198.797 65.9938ZM192.623 65.9612C195.293 66.7148 197.353 67.7242 198.524 68.558C199.132 68.9906 199.234 69.1877 199.135 69.0405C199.055 68.922 198.305 67.738 198.797 65.9938L210.115 69.1878C210.925 66.3182 209.841 63.8824 208.884 62.4636C207.907 61.0161 206.59 59.8645 205.345 58.9782C202.811 57.174 199.435 55.6645 195.817 54.6433L192.623 65.9612ZM187.342 62.7609C186.85 64.5052 185.592 65.1226 185.462 65.1818C185.3 65.2554 185.49 65.1409 186.234 65.0897C187.669 64.9912 189.952 65.2077 192.623 65.9612L195.817 54.6433C192.198 53.6222 188.531 53.1442 185.428 53.3575C183.903 53.4623 182.178 53.7553 180.589 54.4787C179.032 55.1878 176.834 56.6973 176.024 59.5669L187.342 62.7609ZM187.476 61.1161C187.534 61.6049 187.508 62.1709 187.342 62.7609L176.024 59.5669C175.742 60.5651 175.688 61.5559 175.796 62.4825L187.476 61.1161ZM185.008 70.9149L187.261 63.5115L176.011 60.0871L173.758 67.4905L185.008 70.9149ZM203.412 70.3707L181.095 63.5776L177.671 74.8279L199.988 81.621L203.412 70.3707ZM198.419 66.5828L196.075 74.2836L207.325 77.7081L209.669 70.0073L198.419 66.5828Z" fill="white" mask="url(#path-1-outside-1_748_5785)"/>
<rect x="24.6894" y="171.856" width="104.273" height="266.254" rx="13.2119" transform="rotate(-75 24.6894 171.856)" fill="currentColor" stroke="white" stroke-width="7.28788" stroke-linejoin="round"/>
<path d="M286.367 124.044C284.225 123.322 281.917 124.555 281.326 126.737L251.289 237.576C250.721 239.672 251.963 241.831 254.061 242.393L260.013 243.988C262.106 244.549 264.258 243.306 264.819 241.213L294.445 130.646C294.981 128.646 293.87 126.573 291.908 125.912L286.367 124.044Z" fill="currentColor" stroke="white" stroke-width="4.48485"/>
<mask id="path-5-outside-2_748_5785" maskUnits="userSpaceOnUse" x="61.5723" y="45.3074" width="210.656" height="210.656" fill="black">
<rect fill="white" x="61.5723" y="45.3074" width="210.656" height="210.656"/>
<path d="M243.825 150.595C243.825 193.092 209.374 227.543 166.877 227.543C124.38 227.543 89.9291 193.092 89.9291 150.595C89.9291 108.098 124.38 73.6471 166.877 73.6471C209.374 73.6471 243.825 108.098 243.825 150.595Z"/>
</mask>
<path d="M243.825 150.595C243.825 193.092 209.374 227.543 166.877 227.543C124.38 227.543 89.9291 193.092 89.9291 150.595C89.9291 108.098 124.38 73.6471 166.877 73.6471C209.374 73.6471 243.825 108.098 243.825 150.595Z" fill="currentColor"/>
<path d="M235.416 150.595C235.416 188.448 204.73 219.134 166.877 219.134L166.877 235.952C214.018 235.952 252.234 197.736 252.234 150.595L235.416 150.595ZM166.877 219.134C129.024 219.134 98.3382 188.448 98.3382 150.595L81.52 150.595C81.52 197.736 119.736 235.952 166.877 235.952L166.877 219.134ZM98.3382 150.595C98.3382 112.742 129.024 82.0562 166.877 82.0562L166.877 65.238C119.736 65.238 81.52 103.454 81.52 150.595L98.3382 150.595ZM166.877 82.0562C204.73 82.0562 235.416 112.742 235.416 150.595L252.234 150.595C252.234 103.454 214.018 65.238 166.877 65.238L166.877 82.0562Z" fill="white" mask="url(#path-5-outside-2_748_5785)"/>
<circle cx="143.72" cy="121.314" r="19.5798" fill="white"/>
<circle cx="183.447" cy="121.314" r="19.5798" fill="white"/>
<circle cx="150.989" cy="121.595" r="11.1885" fill="black"/>
<circle cx="191.446" cy="121.595" r="11.1885" fill="black"/>
</svg>
