<svg width="286" height="277" viewBox="0 0 286 277" fill="none" xmlns="http://www.w3.org/2000/svg">
<circle cx="142" cy="41" r="9" fill="#DDDAFF"/>
<circle cx="117" cy="16" r="16" fill="#DDDAFF"/>
<path fill-rule="evenodd" clip-rule="evenodd" d="M143 224L166.747 236.347L223.534 224V238.756L286 248.994L223.534 257.125V272.784L171.393 262.545L143 276.699V277L114.606 262.846L62.4657 273.085V257.426L0 249.295L62.4657 239.057V224.301L119.253 236.648L143 224.301V224Z" fill="#DDDAFF"/>
<mask id="path-4-outside-1_859_4810" maskUnits="userSpaceOnUse" x="53" y="73" width="180" height="179" fill="black">
<rect fill="white" x="53" y="73" width="180" height="179"/>
<path fill-rule="evenodd" clip-rule="evenodd" d="M83.9692 86.7491C83.9692 83.574 86.5432 81 89.7183 81H113.832C117.007 81 119.581 83.574 119.581 86.7491V90.3379H213.502C219.852 90.3379 225 95.4858 225 101.836V195.553C225 201.903 219.852 207.051 213.502 207.051H165.965V227.146C173.29 227.42 179.081 230.861 179.081 235.065C179.081 239.449 172.788 243.002 165.024 243.002C157.261 243.002 150.967 239.449 150.967 235.065C150.967 232.714 152.778 230.601 155.656 229.148V207.051H129.888V229.148C132.766 230.601 134.577 232.714 134.577 235.065C134.577 239.449 128.283 243.002 120.52 243.002C112.756 243.002 106.463 239.449 106.463 235.065C106.463 230.861 112.254 227.42 119.579 227.146V207.051H72.4982C66.1479 207.051 61 201.903 61 195.553V101.836C61 95.4858 66.1479 90.3379 72.4982 90.3379H83.9692V86.7491Z"/>
</mask>
<path fill-rule="evenodd" clip-rule="evenodd" d="M83.9692 86.7491C83.9692 83.574 86.5432 81 89.7183 81H113.832C117.007 81 119.581 83.574 119.581 86.7491V90.3379H213.502C219.852 90.3379 225 95.4858 225 101.836V195.553C225 201.903 219.852 207.051 213.502 207.051H165.965V227.146C173.29 227.42 179.081 230.861 179.081 235.065C179.081 239.449 172.788 243.002 165.024 243.002C157.261 243.002 150.967 239.449 150.967 235.065C150.967 232.714 152.778 230.601 155.656 229.148V207.051H129.888V229.148C132.766 230.601 134.577 232.714 134.577 235.065C134.577 239.449 128.283 243.002 120.52 243.002C112.756 243.002 106.463 239.449 106.463 235.065C106.463 230.861 112.254 227.42 119.579 227.146V207.051H72.4982C66.1479 207.051 61 201.903 61 195.553V101.836C61 95.4858 66.1479 90.3379 72.4982 90.3379H83.9692V86.7491Z" fill="#857BFF"/>
<path d="M119.581 90.3379H111.581V98.3379H119.581V90.3379ZM165.965 207.051V199.051H157.965V207.051H165.965ZM165.965 227.146H157.965V234.854L165.666 235.141L165.965 227.146ZM155.656 229.148L159.262 236.289L163.656 234.07V229.148H155.656ZM155.656 207.051H163.656V199.051H155.656V207.051ZM129.888 207.051V199.051H121.888V207.051H129.888ZM129.888 229.148H121.888V234.07L126.282 236.289L129.888 229.148ZM119.579 227.146L119.878 235.141L127.579 234.854V227.146H119.579ZM119.579 207.051H127.579V199.051H119.579V207.051ZM83.9692 90.3379V98.3379H91.9692V90.3379H83.9692ZM89.7183 73C82.1249 73 75.9692 79.1557 75.9692 86.7491H91.9692C91.9692 87.9923 90.9614 89 89.7183 89V73ZM113.832 73H89.7183V89H113.832V73ZM127.581 86.7491C127.581 79.1557 121.425 73 113.832 73V89C112.588 89 111.581 87.9922 111.581 86.7491H127.581ZM127.581 90.3379V86.7491H111.581V90.3379H127.581ZM213.502 82.3379H119.581V98.3379H213.502V82.3379ZM233 101.836C233 91.0676 224.27 82.3379 213.502 82.3379V98.3379C215.434 98.3379 217 99.9041 217 101.836H233ZM233 195.553V101.836H217V195.553H233ZM213.502 215.051C224.27 215.051 233 206.322 233 195.553H217C217 197.485 215.434 199.051 213.502 199.051V215.051ZM165.965 215.051H213.502V199.051H165.965V215.051ZM157.965 207.051V227.146H173.965V207.051H157.965ZM165.666 235.141C168.259 235.238 170.162 235.896 171.15 236.489C172.328 237.197 171.081 236.951 171.081 235.065H187.081C187.081 228.975 182.939 224.906 179.39 222.774C175.651 220.527 170.995 219.328 166.263 219.152L165.666 235.141ZM171.081 235.065C171.081 233.098 172.412 232.931 171.031 233.711C169.895 234.352 167.787 235.002 165.024 235.002V251.002C170.024 251.002 174.946 249.875 178.897 247.644C182.604 245.551 187.081 241.416 187.081 235.065H171.081ZM165.024 235.002C162.261 235.002 160.154 234.352 159.017 233.711C157.636 232.931 158.967 233.098 158.967 235.065H142.967C142.967 241.416 147.444 245.551 151.151 247.644C155.102 249.875 160.024 251.002 165.024 251.002V235.002ZM158.967 235.065C158.967 235.525 158.875 235.934 158.749 236.257C158.628 236.568 158.497 236.746 158.45 236.803C158.405 236.859 158.427 236.818 158.568 236.711C158.707 236.604 158.932 236.456 159.262 236.289L152.05 222.007C148.066 224.019 142.967 228.254 142.967 235.065H158.967ZM163.656 229.148V207.051H147.656V229.148H163.656ZM129.888 215.051H155.656V199.051H129.888V215.051ZM137.888 229.148V207.051H121.888V229.148H137.888ZM142.577 235.065C142.577 228.254 137.478 224.019 133.494 222.007L126.282 236.289C126.612 236.456 126.837 236.604 126.976 236.711C127.117 236.818 127.139 236.859 127.094 236.803C127.047 236.746 126.916 236.568 126.794 236.257C126.669 235.934 126.577 235.525 126.577 235.065H142.577ZM120.52 251.002C125.52 251.002 130.441 249.875 134.393 247.644C138.1 245.551 142.577 241.416 142.577 235.065H126.577C126.577 233.098 127.908 232.931 126.527 233.711C125.39 234.352 123.283 235.002 120.52 235.002V251.002ZM98.4627 235.065C98.4627 241.416 102.94 245.551 106.647 247.644C110.598 249.875 115.52 251.002 120.52 251.002V235.002C117.757 235.002 115.649 234.352 114.513 233.711C113.132 232.931 114.463 233.098 114.463 235.065H98.4627ZM119.281 219.152C114.549 219.328 109.893 220.527 106.154 222.774C102.605 224.906 98.4627 228.975 98.4627 235.065H114.463C114.463 236.951 113.216 237.197 114.394 236.489C115.382 235.896 117.285 235.238 119.878 235.141L119.281 219.152ZM111.579 207.051V227.146H127.579V207.051H111.579ZM72.4982 215.051H119.579V199.051H72.4982V215.051ZM53 195.553C53 206.322 61.7296 215.051 72.4982 215.051V199.051C70.5662 199.051 69 197.485 69 195.553H53ZM53 101.836V195.553H69V101.836H53ZM72.4982 82.3379C61.7297 82.3379 53 91.0676 53 101.836H69C69 99.9041 70.5662 98.3379 72.4982 98.3379V82.3379ZM83.9692 82.3379H72.4982V98.3379H83.9692V82.3379ZM75.9692 86.7491V90.3379H91.9692V86.7491H75.9692Z" fill="white" mask="url(#path-4-outside-1_859_4810)"/>
<ellipse cx="125.092" cy="127.531" rx="17.9222" ry="18.5178" fill="white"/>
<ellipse cx="161.27" cy="127.531" rx="18.2541" ry="18.5178" fill="white"/>
<ellipse cx="165.953" cy="122.124" rx="9.95676" ry="11.243" fill="black"/>
<ellipse cx="129.394" cy="122.124" rx="9.95676" ry="11.243" fill="black"/>
</svg>
