<svg width="219" height="218" viewBox="0 0 219 218" fill="none" xmlns="http://www.w3.org/2000/svg">
<mask id="path-1-outside-1_808_4483" maskUnits="userSpaceOnUse" x="0" y="0.302734" width="219" height="218" fill="black">
<rect fill="white" y="0.302734" width="219" height="218"/>
<path fill-rule="evenodd" clip-rule="evenodd" d="M37.1882 15.0519C37.1882 11.8767 39.7622 9.30273 42.9373 9.30273H75.1324C78.3075 9.30273 80.8815 11.8767 80.8815 15.0519V20.802H198.721C205.071 20.802 210.219 25.9499 210.219 32.3002V153.032C210.219 159.382 205.071 164.53 198.721 164.53H137.789V189.274C146.776 189.611 153.881 193.848 153.881 199.026C153.881 204.424 146.16 208.799 136.634 208.799C127.109 208.799 119.387 204.424 119.387 199.026C119.387 196.13 121.609 193.528 125.141 191.738V164.53H93.5193V191.738C97.0507 193.528 99.2734 196.13 99.2734 199.026C99.2734 204.424 91.5515 208.799 82.026 208.799C72.5006 208.799 64.7787 204.424 64.7787 199.026C64.7787 193.848 71.8842 189.611 80.8712 189.274V164.53H20.4982C14.1479 164.53 9 159.382 9 153.032V32.3002C9 25.9499 14.1479 20.802 20.4982 20.802H37.1882V15.0519Z"/>
</mask>
<path fill-rule="evenodd" clip-rule="evenodd" d="M37.1882 15.0519C37.1882 11.8767 39.7622 9.30273 42.9373 9.30273H75.1324C78.3075 9.30273 80.8815 11.8767 80.8815 15.0519V20.802H198.721C205.071 20.802 210.219 25.9499 210.219 32.3002V153.032C210.219 159.382 205.071 164.53 198.721 164.53H137.789V189.274C146.776 189.611 153.881 193.848 153.881 199.026C153.881 204.424 146.16 208.799 136.634 208.799C127.109 208.799 119.387 204.424 119.387 199.026C119.387 196.13 121.609 193.528 125.141 191.738V164.53H93.5193V191.738C97.0507 193.528 99.2734 196.13 99.2734 199.026C99.2734 204.424 91.5515 208.799 82.026 208.799C72.5006 208.799 64.7787 204.424 64.7787 199.026C64.7787 193.848 71.8842 189.611 80.8712 189.274V164.53H20.4982C14.1479 164.53 9 159.382 9 153.032V32.3002C9 25.9499 14.1479 20.802 20.4982 20.802H37.1882V15.0519Z" fill="currentColor"/>
<path d="M80.8815 20.802H72.2578V29.4256H80.8815V20.802ZM137.789 164.53V155.906H129.165V164.53H137.789ZM137.789 189.274H129.165V197.581L137.466 197.892L137.789 189.274ZM125.141 191.738L129.039 199.431L133.764 197.036V191.738H125.141ZM125.141 164.53H133.764V155.906H125.141V164.53ZM93.5193 164.53V155.906H84.8956V164.53H93.5193ZM93.5193 191.738H84.8956V197.036L89.6209 199.431L93.5193 191.738ZM80.8712 189.274L81.1941 197.892L89.4949 197.581V189.274H80.8712ZM80.8712 164.53H89.4949V155.906H80.8712V164.53ZM37.1882 20.802V29.4256H45.8119V20.802H37.1882ZM42.9373 0.679056C34.9994 0.679056 28.5645 7.11397 28.5645 15.0519H45.8119C45.8119 16.6394 44.5249 17.9264 42.9373 17.9264V0.679056ZM75.1324 0.679056H42.9373V17.9264H75.1324V0.679056ZM89.5052 15.0519C89.5052 7.114 83.0703 0.679056 75.1324 0.679056V17.9264C73.5448 17.9264 72.2578 16.6394 72.2578 15.0519H89.5052ZM89.5052 20.802V15.0519H72.2578V20.802H89.5052ZM198.721 12.1783H80.8815V29.4256H198.721V12.1783ZM218.843 32.3002C218.843 21.1872 209.834 12.1783 198.721 12.1783V29.4256C200.309 29.4256 201.595 30.7126 201.595 32.3002H218.843ZM218.843 153.032V32.3002H201.595V153.032H218.843ZM198.721 173.154C209.834 173.154 218.843 164.145 218.843 153.032H201.595C201.595 154.619 200.309 155.906 198.721 155.906V173.154ZM137.789 173.154H198.721V155.906H137.789V173.154ZM129.165 164.53V189.274H146.413V164.53H129.165ZM137.466 197.892C140.801 198.016 143.337 198.866 144.752 199.719C146.367 200.693 145.258 200.72 145.258 199.026H162.505C162.505 192.153 157.844 187.473 153.659 184.95C149.274 182.306 143.764 180.868 138.112 180.656L137.466 197.892ZM145.258 199.026C145.258 197.258 146.438 197.38 144.578 198.434C142.977 199.341 140.186 200.176 136.634 200.176V217.423C142.608 217.423 148.441 216.069 153.081 213.44C157.464 210.956 162.505 206.192 162.505 199.026H145.258ZM136.634 200.176C133.082 200.176 130.291 199.341 128.69 198.434C126.831 197.38 128.01 197.258 128.01 199.026H110.763C110.763 206.192 115.804 210.956 120.187 213.44C124.828 216.069 130.66 217.423 136.634 217.423V200.176ZM128.01 199.026C128.01 199.426 127.93 199.776 127.829 200.037C127.732 200.286 127.64 200.396 127.652 200.382C127.665 200.365 127.764 200.249 128.001 200.067C128.237 199.886 128.577 199.665 129.039 199.431L121.242 184.046C116.508 186.446 110.763 191.339 110.763 199.026H128.01ZM133.764 191.738V164.53H116.517V191.738H133.764ZM93.5193 173.154H125.141V155.906H93.5193V173.154ZM102.143 191.738V164.53H84.8956V191.738H102.143ZM107.897 199.026C107.897 191.339 102.152 186.446 97.4177 184.046L89.6209 199.431C90.0832 199.665 90.4233 199.886 90.6591 200.067C90.8966 200.249 90.9948 200.365 91.0084 200.382C91.0198 200.396 90.9279 200.286 90.8314 200.037C90.7301 199.776 90.6497 199.426 90.6497 199.026H107.897ZM82.026 217.423C87.9996 217.423 93.8325 216.069 98.4733 213.44C102.856 210.956 107.897 206.192 107.897 199.026H90.6497C90.6497 197.258 91.8294 197.38 89.9702 198.434C88.3687 199.341 85.5779 200.176 82.026 200.176V217.423ZM56.155 199.026C56.155 206.192 61.1957 210.956 65.5787 213.44C70.2195 216.069 76.0524 217.423 82.026 217.423V200.176C78.4742 200.176 75.6834 199.341 74.0819 198.434C72.2226 197.38 73.4023 197.258 73.4023 199.026H56.155ZM80.5484 180.656C74.8965 180.868 69.3861 182.306 65.0015 184.95C60.8166 187.473 56.155 192.153 56.155 199.026H73.4023C73.4023 200.721 72.2935 200.693 73.9081 199.719C75.3231 198.866 77.8589 198.016 81.1941 197.892L80.5484 180.656ZM72.2476 164.53V189.274H89.4949V164.53H72.2476ZM20.4982 173.154H80.8712V155.906H20.4982V173.154ZM0.376322 153.032C0.376322 164.145 9.38521 173.154 20.4982 173.154V155.906C18.9107 155.906 17.6237 154.619 17.6237 153.032H0.376322ZM0.376322 32.3002V153.032H17.6237V32.3002H0.376322ZM20.4982 12.1783C9.38521 12.1783 0.376322 21.1872 0.376322 32.3002H17.6237C17.6237 30.7126 18.9107 29.4256 20.4982 29.4256V12.1783ZM37.1882 12.1783H20.4982V29.4256H37.1882V12.1783ZM28.5645 15.0519V20.802H45.8119V15.0519H28.5645Z" fill="white" mask="url(#path-1-outside-1_808_4483)"/>
<ellipse cx="87.0833" cy="66.6047" rx="21.9895" ry="22.804" fill="white"/>
<ellipse cx="131.471" cy="66.6047" rx="22.3967" ry="22.804" fill="white"/>
<ellipse cx="137.216" cy="59.9449" rx="12.2164" ry="13.8453" fill="black"/>
<ellipse cx="92.3609" cy="59.9449" rx="12.2164" ry="13.8453" fill="black"/>
</svg>
