<svg width="202" height="310" viewBox="0 0 202 310" fill="none" xmlns="http://www.w3.org/2000/svg">
<mask id="path-1-outside-1_748_4872" maskUnits="userSpaceOnUse" x="4.71484" y="0.302734" width="194" height="310" fill="black">
<rect fill="white" x="4.71484" y="0.302734" width="194" height="310"/>
<path fill-rule="evenodd" clip-rule="evenodd" d="M108.132 184.66C144.273 181.93 176.394 156.818 186.307 119.824C198.854 72.9964 171.064 24.8631 124.236 12.3156C77.4085 -0.231936 29.2752 27.5578 16.7277 74.3858C4.18017 121.214 31.9699 169.347 78.7979 181.894C82.8935 182.992 86.9991 183.781 91.0901 184.275C91.0798 184.312 91.0698 184.348 91.06 184.385C90.2992 187.224 91.1119 190.126 92.973 192.216C90.3172 193.096 88.1632 195.202 87.4025 198.041C86.6381 200.894 87.4621 203.81 89.3421 205.902C86.6531 206.824 84.4568 209.025 83.6658 211.978C82.8744 214.931 83.6768 217.936 85.5459 220.079C82.8701 220.95 80.6968 223.064 79.932 225.919C79.1676 228.772 79.9916 231.688 81.8716 233.78C79.1826 234.702 76.9864 236.903 76.1953 239.855C75.4039 242.809 76.2064 245.814 78.0754 247.957C75.3997 248.828 73.2263 250.942 72.4615 253.796C71.9626 255.658 72.1403 257.547 72.8468 259.217C64.1751 259.809 56.4471 265.81 54.0717 274.675C51.0822 285.832 57.7033 297.3 68.8603 300.289C80.0172 303.279 91.4852 296.658 94.4747 285.501C96.8075 276.795 93.2884 267.899 86.3285 262.991C87.8542 261.893 89.0159 260.301 89.5332 258.371C90.2982 255.516 89.4725 252.597 87.5898 250.505C90.2792 249.583 92.4758 247.382 93.267 244.429C94.0578 241.478 93.257 238.475 91.3906 236.332C94.066 235.461 96.239 233.347 97.0037 230.493C97.7687 227.638 96.943 224.72 95.0603 222.628C97.7497 221.705 99.9463 219.505 100.737 216.552C101.528 213.601 100.727 210.598 98.8611 208.454C101.537 207.583 103.71 205.469 104.474 202.615C105.235 199.776 104.422 196.874 102.561 194.784C105.217 193.904 107.371 191.798 108.132 188.959C108.522 187.503 108.498 186.031 108.132 184.66Z"/>
</mask>
<path fill-rule="evenodd" clip-rule="evenodd" d="M108.132 184.66C144.273 181.93 176.394 156.818 186.307 119.824C198.854 72.9964 171.064 24.8631 124.236 12.3156C77.4085 -0.231936 29.2752 27.5578 16.7277 74.3858C4.18017 121.214 31.9699 169.347 78.7979 181.894C82.8935 182.992 86.9991 183.781 91.0901 184.275C91.0798 184.312 91.0698 184.348 91.06 184.385C90.2992 187.224 91.1119 190.126 92.973 192.216C90.3172 193.096 88.1632 195.202 87.4025 198.041C86.6381 200.894 87.4621 203.81 89.3421 205.902C86.6531 206.824 84.4568 209.025 83.6658 211.978C82.8744 214.931 83.6768 217.936 85.5459 220.079C82.8701 220.95 80.6968 223.064 79.932 225.919C79.1676 228.772 79.9916 231.688 81.8716 233.78C79.1826 234.702 76.9864 236.903 76.1953 239.855C75.4039 242.809 76.2064 245.814 78.0754 247.957C75.3997 248.828 73.2263 250.942 72.4615 253.796C71.9626 255.658 72.1403 257.547 72.8468 259.217C64.1751 259.809 56.4471 265.81 54.0717 274.675C51.0822 285.832 57.7033 297.3 68.8603 300.289C80.0172 303.279 91.4852 296.658 94.4747 285.501C96.8075 276.795 93.2884 267.899 86.3285 262.991C87.8542 261.893 89.0159 260.301 89.5332 258.371C90.2982 255.516 89.4725 252.597 87.5898 250.505C90.2792 249.583 92.4758 247.382 93.267 244.429C94.0578 241.478 93.257 238.475 91.3906 236.332C94.066 235.461 96.239 233.347 97.0037 230.493C97.7687 227.638 96.943 224.72 95.0603 222.628C97.7497 221.705 99.9463 219.505 100.737 216.552C101.528 213.601 100.727 210.598 98.8611 208.454C101.537 207.583 103.71 205.469 104.474 202.615C105.235 199.776 104.422 196.874 102.561 194.784C105.217 193.904 107.371 191.798 108.132 188.959C108.522 187.503 108.498 186.031 108.132 184.66Z" fill="currentColor"/>
<path d="M186.307 119.824L177.771 117.537V117.537L186.307 119.824ZM108.132 184.66L107.466 175.848L96.8438 176.65L99.5946 186.942L108.132 184.66ZM124.236 12.3156L121.949 20.8514L124.236 12.3156ZM16.7277 74.3858L8.19183 72.0986L16.7277 74.3858ZM78.7979 181.894L81.085 173.359V173.359L78.7979 181.894ZM91.0901 184.275L99.5945 186.677L102.4 176.741L92.1506 175.502L91.0901 184.275ZM91.06 184.385L82.5242 182.097L82.5242 182.097L91.06 184.385ZM92.973 192.216L95.7515 200.605L108.513 196.378L99.5723 186.339L92.973 192.216ZM87.4025 198.041L78.8667 195.754L78.8667 195.754L87.4025 198.041ZM89.3421 205.902L92.2089 214.261L104.842 209.929L95.9149 199.995L89.3421 205.902ZM83.6658 211.978L92.2016 214.265L83.6658 211.978ZM85.5459 220.079L88.2812 228.482L100.991 224.345L92.2062 214.271L85.5459 220.079ZM79.932 225.919L71.3962 223.631L71.3962 223.631L79.932 225.919ZM81.8716 233.78L84.7384 242.139L97.3712 237.806L88.4444 227.873L81.8716 233.78ZM76.1953 239.855L67.6594 237.568H67.6594L76.1953 239.855ZM78.0754 247.957L80.8107 256.36L93.5202 252.223L84.7357 242.149L78.0754 247.957ZM72.4615 253.796L80.9974 256.083L72.4615 253.796ZM72.8468 259.217L73.4487 268.033L85.8163 267.189L80.9849 255.773L72.8468 259.217ZM54.0717 274.675L62.6076 276.962H62.6076L54.0717 274.675ZM94.4747 285.501L103.011 287.788L94.4747 285.501ZM86.3285 262.991L81.1676 255.817L71.0975 263.063L81.2354 270.212L86.3285 262.991ZM89.5332 258.371L98.0691 260.658L98.0691 260.658L89.5332 258.371ZM87.5898 250.505L84.7238 242.146L72.0803 246.481L81.0208 256.416L87.5898 250.505ZM93.267 244.429L84.7311 242.142V242.142L93.267 244.429ZM91.3906 236.332L88.6546 227.929L75.9557 232.064L84.7265 242.136L91.3906 236.332ZM97.0037 230.493L105.54 232.78L105.54 232.78L97.0037 230.493ZM95.0603 222.628L92.1943 214.268L79.5508 218.603L88.4913 228.539L95.0603 222.628ZM100.737 216.552L109.273 218.839V218.839L100.737 216.552ZM98.8611 208.454L96.125 200.052L83.4263 204.187L92.197 214.258L98.8611 208.454ZM104.474 202.615L95.9384 200.328L95.9384 200.328L104.474 202.615ZM102.561 194.784L99.7828 186.395L87.0212 190.622L95.9619 200.661L102.561 194.784ZM108.132 188.959L99.5959 186.672L99.5959 186.672L108.132 188.959ZM177.771 117.537C168.86 150.793 139.982 173.392 107.466 175.848L108.797 193.472C148.565 190.468 183.929 162.843 194.842 122.111L177.771 117.537ZM121.949 20.8514C164.063 32.1358 189.055 75.4234 177.771 117.537L194.842 122.111C208.653 70.5693 178.066 17.5904 126.524 3.77972L121.949 20.8514ZM25.2635 76.6729C36.5479 34.5592 79.8355 9.56709 121.949 20.8514L126.524 3.77972C74.9814 -10.031 22.0025 20.5564 8.19183 72.0986L25.2635 76.6729ZM81.085 173.359C38.9713 162.074 13.9792 118.787 25.2635 76.6729L8.19183 72.0986C-5.61885 123.641 24.9685 176.62 76.5107 190.43L81.085 173.359ZM92.1506 175.502C88.4724 175.058 84.7767 174.348 81.085 173.359L76.5107 190.43C81.0103 191.636 85.5259 192.504 90.0295 193.048L92.1506 175.502ZM99.5958 186.672C99.5953 186.674 99.5948 186.676 99.5945 186.677L82.5857 181.874C82.5648 181.948 82.5443 182.022 82.5242 182.097L99.5958 186.672ZM99.5723 186.339C99.5643 186.33 99.5828 186.345 99.5984 186.406C99.6067 186.439 99.6133 186.482 99.6132 186.534C99.613 186.587 99.6057 186.635 99.5959 186.672L82.5242 182.097C80.9393 188.012 82.6765 193.942 86.3738 198.093L99.5723 186.339ZM90.1946 183.827C84.9185 185.575 80.4511 189.841 78.8667 195.754L95.9384 200.328C95.9285 200.365 95.9108 200.41 95.8844 200.456C95.8588 200.501 95.8314 200.535 95.8079 200.559C95.7638 200.605 95.7401 200.609 95.7515 200.605L90.1946 183.827ZM78.8667 195.754C77.2742 201.697 79.0355 207.654 82.7693 211.809L95.9149 199.995C95.9065 199.986 95.925 200.001 95.9407 200.062C95.949 200.095 95.9557 200.138 95.9557 200.19C95.9556 200.243 95.9483 200.291 95.9384 200.328L78.8667 195.754ZM86.4753 197.543C81.1224 199.379 76.7142 203.778 75.1299 209.69L92.2016 214.265C92.2027 214.261 92.2035 214.258 92.204 214.257C92.2046 214.255 92.2049 214.254 92.2049 214.254C92.205 214.254 92.2048 214.254 92.2044 214.255C92.204 214.256 92.2035 214.257 92.2028 214.258C92.1996 214.264 92.1964 214.268 92.195 214.269C92.1941 214.27 92.1955 214.269 92.1994 214.266C92.2035 214.263 92.2072 214.262 92.2089 214.261L86.4753 197.543ZM75.1299 209.69C73.545 215.605 75.165 221.621 78.8856 225.887L92.2062 214.271C92.205 214.27 92.2026 214.267 92.2004 214.263C92.1982 214.258 92.1978 214.256 92.1981 214.257C92.1986 214.26 92.1995 214.264 92.1994 214.271C92.1994 214.272 92.1993 214.273 92.1993 214.274C92.1992 214.275 92.1992 214.276 92.1992 214.276C92.1992 214.276 92.1993 214.275 92.1996 214.273C92.2 214.271 92.2006 214.269 92.2016 214.265L75.1299 209.69ZM82.8106 211.676C77.4965 213.406 72.9893 217.686 71.3962 223.631L88.4679 228.206C88.4579 228.243 88.4401 228.288 88.4135 228.335C88.3877 228.379 88.3602 228.414 88.3367 228.438C88.2926 228.483 88.2692 228.486 88.2812 228.482L82.8106 211.676ZM71.3962 223.631C69.8037 229.575 71.565 235.532 75.2988 239.687L88.4444 227.873C88.4361 227.864 88.4545 227.879 88.4702 227.94C88.4785 227.972 88.4852 228.016 88.4852 228.067C88.4851 228.12 88.4778 228.169 88.4679 228.206L71.3962 223.631ZM79.0048 225.421C73.652 227.257 69.2437 231.655 67.6594 237.568L84.7311 242.142C84.7322 242.138 84.733 242.136 84.7336 242.134C84.7341 242.133 84.7344 242.132 84.7344 242.132C84.7345 242.132 84.7343 242.132 84.7339 242.133C84.7335 242.134 84.733 242.135 84.7323 242.136C84.7291 242.141 84.7259 242.145 84.7245 242.147C84.7236 242.148 84.725 242.146 84.729 242.144C84.733 242.141 84.7367 242.139 84.7384 242.139L79.0048 225.421ZM67.6594 237.568C66.0745 243.483 67.6945 249.498 71.415 253.765L84.7357 242.149C84.7345 242.148 84.7321 242.144 84.7299 242.14C84.7277 242.136 84.7273 242.134 84.7276 242.135C84.7281 242.137 84.729 242.142 84.7289 242.148C84.7289 242.15 84.7288 242.151 84.7288 242.152C84.7287 242.153 84.7287 242.153 84.7287 242.153C84.7287 242.153 84.7288 242.152 84.7291 242.151C84.7295 242.149 84.7301 242.146 84.7311 242.142L67.6594 237.568ZM75.3401 239.554C70.026 241.284 65.5189 245.563 63.9257 251.509L80.9974 256.083C80.9874 256.12 80.9696 256.166 80.943 256.212C80.9172 256.257 80.8897 256.291 80.8662 256.315C80.8221 256.36 80.7987 256.364 80.8107 256.36L75.3401 239.554ZM63.9257 251.509C62.893 255.363 63.2723 259.267 64.7086 262.661L80.9849 255.773C80.9943 255.795 81.0082 255.838 81.013 255.9C81.0181 255.967 81.0111 256.032 80.9974 256.083L63.9257 251.509ZM72.2448 250.4C59.9205 251.242 48.9184 259.764 45.5359 272.388L62.6076 276.962C63.9757 271.856 68.4296 268.376 73.4487 268.033L72.2448 250.4ZM45.5359 272.388C41.2832 288.259 50.7019 304.573 66.5731 308.825L71.1474 291.754C64.7047 290.027 60.8812 283.405 62.6076 276.962L45.5359 272.388ZM66.5731 308.825C82.4443 313.078 98.7579 303.659 103.011 287.788L85.9389 283.214C84.2126 289.656 77.5902 293.48 71.1474 291.754L66.5731 308.825ZM103.011 287.788C106.333 275.39 101.311 262.744 91.4217 255.769L81.2354 270.212C85.266 273.055 87.2824 278.2 85.9389 283.214L103.011 287.788ZM91.4895 270.164C94.586 267.936 96.9979 264.655 98.0691 260.658L80.9974 256.083C81.0117 256.03 81.04 255.967 81.0793 255.911C81.1161 255.859 81.1499 255.83 81.1676 255.817L91.4895 270.164ZM98.0691 260.658C99.6627 254.71 97.8978 248.749 94.1587 244.594L81.0208 256.416C81.0292 256.426 81.0108 256.411 80.9951 256.35C80.9868 256.317 80.98 256.274 80.9801 256.222C80.9802 256.169 80.9874 256.12 80.9974 256.083L98.0691 260.658ZM90.4557 258.864C95.8093 257.029 100.218 252.63 101.803 246.717L84.7311 242.142C84.7301 242.146 84.7292 242.149 84.7287 242.151C84.7281 242.152 84.7278 242.153 84.7278 242.153C84.7278 242.153 84.7279 242.153 84.7283 242.152C84.7287 242.151 84.7292 242.15 84.7299 242.149C84.7331 242.143 84.7363 242.139 84.7377 242.138C84.7387 242.137 84.7373 242.138 84.7333 242.141C84.7292 242.144 84.7255 242.145 84.7238 242.146L90.4557 258.864ZM101.803 246.717C103.387 240.806 101.77 234.795 98.0548 230.529L84.7265 242.136C84.7277 242.137 84.7301 242.14 84.7323 242.145C84.7345 242.149 84.7349 242.151 84.7346 242.15C84.7341 242.148 84.7332 242.143 84.7333 242.136C84.7333 242.135 84.7334 242.134 84.7334 242.133C84.7335 242.132 84.7336 242.131 84.7336 242.131C84.7335 242.132 84.7334 242.132 84.7331 242.134C84.7328 242.136 84.7322 242.138 84.7311 242.142L101.803 246.717ZM94.1267 244.735C99.4401 243.005 103.947 238.725 105.54 232.78L88.4679 228.206C88.4778 228.169 88.4957 228.123 88.5222 228.077C88.548 228.032 88.5756 227.998 88.5991 227.974C88.6431 227.929 88.6665 227.925 88.6546 227.929L94.1267 244.735ZM105.54 232.78C107.133 226.833 105.368 220.872 101.629 216.716L88.4913 228.539C88.4997 228.548 88.4813 228.533 88.4656 228.472C88.4573 228.44 88.4505 228.396 88.4506 228.344C88.4507 228.291 88.4579 228.243 88.4679 228.206L105.54 232.78ZM97.9263 230.987C103.28 229.151 107.689 224.753 109.273 218.839L92.2016 214.265C92.2006 214.269 92.1997 214.271 92.1992 214.273C92.1986 214.275 92.1983 214.275 92.1983 214.275C92.1983 214.275 92.1984 214.275 92.1988 214.274C92.1992 214.273 92.1998 214.272 92.2004 214.271C92.2036 214.266 92.2068 214.262 92.2082 214.26C92.2091 214.259 92.2078 214.261 92.2038 214.263C92.1997 214.266 92.196 214.268 92.1943 214.268L97.9263 230.987ZM109.273 218.839C110.857 212.928 109.24 206.917 105.525 202.651L92.197 214.258C92.1982 214.259 92.2006 214.263 92.2028 214.267C92.205 214.271 92.2054 214.273 92.2051 214.272C92.2046 214.27 92.2038 214.265 92.2038 214.259C92.2038 214.257 92.2039 214.256 92.2039 214.255C92.204 214.254 92.2041 214.254 92.2041 214.254C92.204 214.254 92.2039 214.255 92.2036 214.256C92.2033 214.258 92.2027 214.261 92.2016 214.265L109.273 218.839ZM101.597 216.857C106.911 215.127 111.417 210.848 113.01 204.903L95.9384 200.328C95.9483 200.291 95.9662 200.246 95.9927 200.2C96.0185 200.155 96.0461 200.12 96.0696 200.096C96.1136 200.051 96.137 200.048 96.125 200.052L101.597 216.857ZM113.01 204.903C114.595 198.988 112.858 193.058 109.16 188.907L95.9619 200.661C95.97 200.67 95.9514 200.655 95.9359 200.594C95.9276 200.561 95.921 200.518 95.9211 200.466C95.9212 200.413 95.9285 200.365 95.9384 200.328L113.01 204.903ZM99.5959 186.672C99.6057 186.635 99.6235 186.59 99.6498 186.544C99.6754 186.499 99.7028 186.465 99.7263 186.441C99.7704 186.395 99.7942 186.391 99.7828 186.395L105.34 203.173C110.616 201.425 115.083 197.159 116.668 191.246L99.5959 186.672ZM99.5946 186.942C99.586 186.91 99.5788 186.866 99.5786 186.813C99.5784 186.759 99.5857 186.71 99.5959 186.672L116.668 191.246C117.472 188.243 117.422 185.194 116.669 182.378L99.5946 186.942Z" fill="white" mask="url(#path-1-outside-1_748_4872)"/>
<circle cx="20.6196" cy="20.6196" r="20.6196" transform="matrix(-1 0 0 1 144.027 53.5488)" fill="white"/>
<circle cx="20.6196" cy="20.6196" r="20.6196" transform="matrix(-1 0 0 1 102.203 53.5488)" fill="white"/>
<circle cx="11.7826" cy="11.7826" r="11.7826" transform="matrix(-1 0 0 1 127.531 62.6816)" fill="black"/>
<circle cx="11.7826" cy="11.7826" r="11.7826" transform="matrix(-1 0 0 1 85.1094 62.6816)" fill="black"/>
<circle cx="174.792" cy="138.915" r="22.2525" fill="currentColor" stroke="white" stroke-width="8.24167"/>
<circle cx="27.1317" cy="138.915" r="22.2525" fill="currentColor" stroke="white" stroke-width="8.24167"/>
</svg>
