<svg width="220" height="245" viewBox="0 0 220 245" fill="none" xmlns="http://www.w3.org/2000/svg">
<mask id="path-1-outside-1_1223_5853" maskUnits="userSpaceOnUse" x="43.6523" y="0" width="176" height="245" fill="black">
<rect fill="white" x="43.6523" width="176" height="245"/>
<path fill-rule="evenodd" clip-rule="evenodd" d="M159.147 36.6308C159.147 46.5467 153.974 55.2426 146.204 60.1172C148.653 63.2338 150.114 67.1638 150.114 71.4351C150.114 74.3329 149.441 77.0737 148.244 79.51C184.091 87.0698 210.998 118.882 210.998 156.978C210.998 200.704 175.551 236.151 131.825 236.151C88.0992 236.151 52.6523 200.704 52.6523 156.978C52.6523 118.91 79.5201 87.1164 115.328 79.5267C114.125 77.0862 113.45 74.3395 113.45 71.4351C113.45 67.1638 114.91 63.2338 117.36 60.1172C109.59 55.2426 104.417 46.5467 104.417 36.6308C104.417 21.3707 116.668 9 131.782 9C146.895 9 159.147 21.3707 159.147 36.6308ZM118.099 36.6308C118.099 44.2608 124.225 50.4461 131.782 50.4461C139.338 50.4461 145.464 44.2608 145.464 36.6308C145.464 29.0007 139.338 22.8154 131.782 22.8154C124.225 22.8154 118.099 29.0007 118.099 36.6308Z"/>
</mask>
<path fill-rule="evenodd" clip-rule="evenodd" d="M159.147 36.6308C159.147 46.5467 153.974 55.2426 146.204 60.1172C148.653 63.2338 150.114 67.1638 150.114 71.4351C150.114 74.3329 149.441 77.0737 148.244 79.51C184.091 87.0698 210.998 118.882 210.998 156.978C210.998 200.704 175.551 236.151 131.825 236.151C88.0992 236.151 52.6523 200.704 52.6523 156.978C52.6523 118.91 79.5201 87.1164 115.328 79.5267C114.125 77.0862 113.45 74.3395 113.45 71.4351C113.45 67.1638 114.91 63.2338 117.36 60.1172C109.59 55.2426 104.417 46.5467 104.417 36.6308C104.417 21.3707 116.668 9 131.782 9C146.895 9 159.147 21.3707 159.147 36.6308ZM118.099 36.6308C118.099 44.2608 124.225 50.4461 131.782 50.4461C139.338 50.4461 145.464 44.2608 145.464 36.6308C145.464 29.0007 139.338 22.8154 131.782 22.8154C124.225 22.8154 118.099 29.0007 118.099 36.6308Z" fill="currentColor"/>
<path d="M146.204 60.1172L141.734 52.9931L133.814 57.9621L139.591 65.3137L146.204 60.1172ZM148.244 79.51L140.696 75.8007L135.926 85.5072L146.508 87.739L148.244 79.51ZM115.328 79.5267L117.071 87.7539L127.652 85.5113L122.872 75.8097L115.328 79.5267ZM117.36 60.1172L123.972 65.3137L129.749 57.9621L121.829 52.9932L117.36 60.1172ZM150.673 67.2413C160.813 60.8795 167.557 49.5362 167.557 36.6308H150.737C150.737 43.5571 147.134 49.6057 141.734 52.9931L150.673 67.2413ZM158.524 71.4351C158.524 65.213 156.388 59.4662 152.816 54.9207L139.591 65.3137C140.917 67.0013 141.704 69.1146 141.704 71.4351H158.524ZM155.792 83.2193C157.544 79.6543 158.524 75.6471 158.524 71.4351H141.704C141.704 73.0187 141.339 74.4932 140.696 75.8007L155.792 83.2193ZM146.508 87.739C178.545 94.4952 202.588 122.939 202.588 156.978H219.408C219.408 114.825 189.637 79.6444 149.979 71.281L146.508 87.739ZM202.588 156.978C202.588 196.059 170.906 227.741 131.825 227.741V244.561C180.196 244.561 219.408 205.349 219.408 156.978H202.588ZM131.825 227.741C92.7439 227.741 61.0623 196.059 61.0623 156.978H44.2423C44.2423 205.349 83.4545 244.561 131.825 244.561V227.741ZM61.0623 156.978C61.0623 122.963 85.0703 94.5368 117.071 87.7539L113.584 71.2994C73.97 79.6959 44.2423 114.856 44.2423 156.978H61.0623ZM105.04 71.4351C105.04 75.6568 106.024 79.6726 107.784 83.2436L122.872 75.8097C122.226 74.4999 121.86 73.0223 121.86 71.4351H105.04ZM110.747 54.9208C107.175 59.4663 105.04 65.213 105.04 71.4351H121.86C121.86 69.1147 122.646 67.0013 123.972 65.3137L110.747 54.9208ZM96.0065 36.6308C96.0065 49.5363 102.75 60.8796 112.89 67.2413L121.829 52.9932C116.43 49.6057 112.827 43.5571 112.827 36.6308H96.0065ZM131.782 0.59C111.947 0.59 96.0065 16.8028 96.0065 36.6308H112.827C112.827 25.9386 121.389 17.41 131.782 17.41V0.59ZM167.557 36.6308C167.557 16.8028 151.616 0.59 131.782 0.59V17.41C142.174 17.41 150.737 25.9386 150.737 36.6308H167.557ZM131.782 42.0361C128.946 42.0361 126.509 39.6929 126.509 36.6308H109.689C109.689 48.8287 119.504 58.8561 131.782 58.8561V42.0361ZM137.054 36.6308C137.054 39.6929 134.617 42.0361 131.782 42.0361V58.8561C144.059 58.8561 153.874 48.8287 153.874 36.6308H137.054ZM131.782 31.2254C134.617 31.2254 137.054 33.5687 137.054 36.6308H153.874C153.874 24.4328 144.059 14.4054 131.782 14.4054V31.2254ZM126.509 36.6308C126.509 33.5687 128.946 31.2254 131.782 31.2254V14.4054C119.504 14.4054 109.689 24.4328 109.689 36.6308H126.509Z" fill="white" mask="url(#path-1-outside-1_1223_5853)"/>
<path d="M108.447 214.227L142.257 224.284C148.458 226.128 153.436 219.018 149.583 213.822L128.568 185.49C124.422 179.899 119.068 175.316 112.905 172.082L12.8596 119.578C7.4505 116.739 2.41736 123.927 6.93508 128.039L90.49 204.093C95.6373 208.779 101.775 212.242 108.447 214.227Z" fill="currentColor" stroke="white" stroke-width="8.41379"/>
<circle cx="85.8813" cy="192.856" r="15.8949" fill="currentColor" stroke="white" stroke-width="8.41"/>
<circle cx="136.362" cy="192.856" r="15.8949" fill="currentColor" stroke="white" stroke-width="8.41"/>
<circle cx="91.6758" cy="124.576" r="18.5976" fill="white"/>
<circle cx="129.402" cy="124.576" r="18.5976" fill="white"/>
<circle cx="98.5803" cy="124.84" r="10.6272" fill="black"/>
<circle cx="136.842" cy="124.84" r="10.6272" fill="black"/>
</svg>
