<svg width="137" height="137" viewBox="0 0 137 137" fill="none" xmlns="http://www.w3.org/2000/svg">
<path d="M65.7088 115.185L65.7136 115.187C66.6146 115.545 67.6011 115.722 68.6697 115.722C70.0928 115.722 71.333 115.413 72.3784 114.781C73.4658 114.15 74.3013 113.228 74.8853 112.024C75.5151 110.816 75.8228 109.353 75.8228 107.647V22.1602V21.874H75.5366H70.7427H70.4566V22.1602V107.969C70.4566 108.829 70.2715 109.467 69.9349 109.916C69.6005 110.32 69.1857 110.515 68.6697 110.515C68.287 110.515 67.9803 110.421 67.734 110.246C67.4863 110.07 67.2785 109.798 67.1212 109.407C66.9632 109.015 66.8601 108.534 66.818 107.959V87.3053V87.0192H66.5319H61.8027H61.5166V87.3053V107.647C61.5166 108.914 61.6705 110.059 61.9826 111.078L61.9849 111.086L61.9875 111.093C62.344 112.067 62.8364 112.914 63.4667 113.63L63.4666 113.63L63.4729 113.637C64.1053 114.31 64.8514 114.826 65.7088 115.185Z" fill="#FFF281" stroke="#FFF281" stroke-width="0.572246"/>
<circle cx="68.2278" cy="68.2273" r="68.2273" transform="rotate(90 68.2278 68.2273)" fill="#857BFF"/>
<path d="M68.2278 -2.98231e-06C50.1328 -5.35518e-06 32.7789 7.1882 19.9838 19.9833C7.18875 32.7784 0.000531866 50.1323 0.000531075 68.2273C0.000530284 86.3223 7.18873 103.676 19.9838 116.471C32.7789 129.266 50.1328 136.455 68.2278 136.455L68.2278 68.2273L68.2278 -2.98231e-06Z" fill="#857BFF"/>
<path d="M75.6713 75.5833C75.6713 79.8266 74.9744 83.4814 73.5806 86.5477C72.2178 89.6141 70.2046 92.1384 67.5409 94.1207C64.9082 96.103 61.6715 97.5742 57.8308 98.5344C53.9901 99.4635 49.6074 99.9281 44.6827 99.9281C42.3597 99.9281 39.9748 99.8042 37.5279 99.5565C35.081 99.3397 32.7271 99.0609 30.466 98.7202C28.205 98.3795 26.1143 98.0233 24.194 97.6516C22.3046 97.249 20.725 96.8773 19.4551 96.5366V81.5766C20.7559 82.1031 22.1807 82.6451 23.7294 83.2027C25.278 83.7292 26.997 84.2093 28.8864 84.6429C30.8067 85.0765 32.9129 85.4327 35.2049 85.7115C37.5279 85.9902 40.0832 86.1296 42.8708 86.1296C45.8752 86.1296 48.3685 85.8044 50.3508 85.154C52.364 84.4725 53.9746 83.5434 55.1826 82.3664C56.3905 81.1584 57.2423 79.7491 57.7379 78.1385C58.2334 76.5279 58.4812 74.7625 58.4812 72.8421V61.125H75.6713V75.5833Z" fill="#FFF281"/>
<rect x="58.4688" y="35.4336" width="17.1269" height="16.1754" fill="#FFF281"/>
</svg>
