<svg width="271" height="287" viewBox="0 0 271 287" fill="none" xmlns="http://www.w3.org/2000/svg">
<circle opacity="0.2" cx="140.029" cy="155.718" r="114.229" fill="#857BFF"/>
<circle opacity="0.1" cx="140.029" cy="155.718" r="130.969" fill="#857BFF"/>
<circle opacity="0.6" cx="140.03" cy="155.717" r="85.6718" fill="#857BFF"/>
<mask id="path-4-outside-1_987_5357" maskUnits="userSpaceOnUse" x="126.702" y="0.839166" width="128.635" height="155.505" fill="black">
<rect fill="white" x="126.702" y="0.839166" width="128.635" height="155.505"/>
<path fill-rule="evenodd" clip-rule="evenodd" d="M218.086 36.9533C216.667 42.2483 212.661 46.1516 207.814 47.6428C208.676 49.6573 208.894 51.9647 208.283 54.2453C207.868 55.7928 207.117 57.1602 206.129 58.2898C224.191 67.4544 234.01 88.293 228.558 108.637C222.302 131.986 198.302 145.843 174.954 139.586C151.605 133.33 137.748 109.33 144.005 85.9814C149.451 65.6547 168.345 52.5224 188.55 53.5911C188.257 52.1152 188.289 50.5511 188.705 48.9994C189.316 46.7187 190.658 44.8291 192.412 43.5154C188.961 39.8007 187.443 34.4173 188.861 29.1225C191.045 20.9739 199.357 16.1212 207.427 18.2836C215.497 20.446 220.27 28.8047 218.086 36.9533ZM196.168 31.0802C195.076 35.1545 197.462 39.3339 201.497 40.4151C205.532 41.4963 209.688 39.0699 210.78 34.9956C211.872 30.9213 209.486 26.742 205.45 25.6608C201.415 24.5796 197.259 27.0059 196.168 31.0802Z"/>
</mask>
<path fill-rule="evenodd" clip-rule="evenodd" d="M218.086 36.9533C216.667 42.2483 212.661 46.1516 207.814 47.6428C208.676 49.6573 208.894 51.9647 208.283 54.2453C207.868 55.7928 207.117 57.1602 206.129 58.2898C224.191 67.4544 234.01 88.293 228.558 108.637C222.302 131.986 198.302 145.843 174.954 139.586C151.605 133.33 137.748 109.33 144.005 85.9814C149.451 65.6547 168.345 52.5224 188.55 53.5911C188.257 52.1152 188.289 50.5511 188.705 48.9994C189.316 46.7187 190.658 44.8291 192.412 43.5154C188.961 39.8007 187.443 34.4173 188.861 29.1225C191.045 20.9739 199.357 16.1212 207.427 18.2836C215.497 20.446 220.27 28.8047 218.086 36.9533ZM196.168 31.0802C195.076 35.1545 197.462 39.3339 201.497 40.4151C205.532 41.4963 209.688 39.0699 210.78 34.9956C211.872 30.9213 209.486 26.742 205.45 25.6608C201.415 24.5796 197.259 27.0059 196.168 31.0802Z" fill="#857BFF"/>
<path d="M207.814 47.6428L206.519 43.4315L201.837 44.872L203.763 49.3757L207.814 47.6428ZM206.129 58.2898L202.812 55.3891L199.081 59.6549L204.135 62.2192L206.129 58.2898ZM188.55 53.5911L188.317 57.9911L193.977 58.2904L192.872 52.732L188.55 53.5911ZM192.412 43.5154L195.054 47.0418L198.974 44.1049L195.64 40.5163L192.412 43.5154ZM209.11 51.8542C215.358 49.9318 220.518 44.9016 222.342 38.0937L213.83 35.8129C212.817 39.5949 209.964 42.3714 206.519 43.4315L209.11 51.8542ZM212.539 55.3857C213.414 52.1179 213.102 48.7998 211.865 45.9099L203.763 49.3757C204.25 50.5149 204.373 51.8115 204.027 53.1049L212.539 55.3857ZM209.445 61.1905C210.867 59.5649 211.946 57.5983 212.539 55.3857L204.027 53.1049C203.79 53.9872 203.366 54.7555 202.812 55.3891L209.445 61.1905ZM204.135 62.2192C220.378 70.4605 229.203 89.2058 224.302 107.497L232.814 109.778C238.816 87.3802 228.005 64.4483 208.122 54.3605L204.135 62.2192ZM224.302 107.497C218.676 128.495 197.092 140.957 176.094 135.33L173.813 143.842C199.513 150.728 225.928 135.477 232.814 109.778L224.302 107.497ZM176.094 135.33C155.096 129.704 142.634 108.12 148.261 87.1218L139.749 84.8409C132.863 110.54 148.114 136.956 173.813 143.842L176.094 135.33ZM148.261 87.1218C153.158 68.8466 170.148 57.0301 188.317 57.9911L188.783 49.191C166.542 48.0146 145.745 62.4629 139.749 84.8409L148.261 87.1218ZM184.449 47.859C183.854 50.0777 183.806 52.3263 184.229 54.4501L192.872 52.732C192.707 51.9042 192.724 51.0246 192.961 50.1398L184.449 47.859ZM189.77 39.989C187.254 41.8736 185.324 44.591 184.449 47.859L192.961 50.1398C193.307 48.8463 194.062 47.7847 195.054 47.0418L189.77 39.989ZM184.605 27.9821C182.781 34.7897 184.735 41.7258 189.184 46.5145L195.64 40.5163C193.186 37.8756 192.104 34.0448 193.117 30.2629L184.605 27.9821ZM208.568 14.0275C198.108 11.2249 187.408 17.5218 184.605 27.9821L193.117 30.2629C194.681 24.426 200.606 21.0174 206.287 22.5397L208.568 14.0275ZM222.342 38.0937C225.145 27.6334 219.027 16.8301 208.568 14.0275L206.287 22.5397C211.968 24.0619 215.394 29.976 213.83 35.8129L222.342 38.0937ZM202.637 36.159C200.992 35.718 199.951 33.9832 200.424 32.2206L191.912 29.9398C190.2 36.3258 193.932 42.9497 200.357 44.6711L202.637 36.159ZM206.524 33.8552C206.052 35.6178 204.283 36.6 202.637 36.159L200.357 44.6711C206.781 46.3925 213.325 42.522 215.036 36.136L206.524 33.8552ZM204.31 29.9168C205.956 30.3578 206.996 32.0926 206.524 33.8552L215.036 36.136C216.747 29.75 213.015 23.1261 206.591 21.4047L204.31 29.9168ZM200.424 32.2206C200.896 30.458 202.664 29.4758 204.31 29.9168L206.591 21.4047C200.167 19.6833 193.623 23.5538 191.912 29.9398L200.424 32.2206Z" fill="white" mask="url(#path-4-outside-1_987_5357)"/>
<path d="M164.05 122.293L184.459 134.832C186.078 135.827 188.031 134.188 187.333 132.421L178.529 110.144C177.777 108.243 176.606 106.535 175.104 105.149L125.878 59.7402C124.559 58.5234 122.585 60.1804 123.554 61.6905L159.725 118.053C160.829 119.774 162.308 121.223 164.05 122.293ZM125.634 60.3557C125.635 60.3566 125.635 60.3575 125.636 60.3584L125.634 60.3557Z" fill="#857BFF" stroke="white" stroke-width="2.47152"/>
<circle cx="156.607" cy="109.886" r="7.93115" transform="rotate(15 156.607 109.886)" fill="#857BFF" stroke="white" stroke-width="2.93746"/>
<circle cx="183.571" cy="117.112" r="7.93115" transform="rotate(15 183.571 117.112)" fill="#857BFF" stroke="white" stroke-width="2.93746"/>
<circle cx="169.468" cy="74.2514" r="10.2811" transform="rotate(15 169.468 74.2514)" fill="white"/>
<circle cx="189.615" cy="79.6489" r="10.2811" transform="rotate(15 189.615 79.6489)" fill="white"/>
<circle cx="173.126" cy="75.3808" r="5.87492" transform="rotate(15 173.126 75.3808)" fill="black"/>
<circle cx="193.55" cy="80.8559" r="5.87492" transform="rotate(15 193.55 80.8559)" fill="black"/>
<circle cx="77.2007" cy="140.419" r="40.8492" fill="#857BFF" stroke="white" stroke-width="4.67739"/>
<mask id="path-14-outside-2_987_5357" maskUnits="userSpaceOnUse" x="0" y="144.928" width="155" height="83" fill="black">
<rect fill="white" y="144.928" width="155" height="83"/>
<path fill-rule="evenodd" clip-rule="evenodd" d="M5 151.752C5 150.744 5.81658 149.928 6.82389 149.928H20.0471C21.0544 149.928 21.871 150.744 21.871 151.752V155.453L73.0374 172.113C75.7896 173.009 78.7553 173.009 81.5076 172.113L133.126 155.306V151.752C133.126 150.744 133.943 149.928 134.95 149.928H148.173C149.18 149.928 149.997 150.744 149.997 151.752V220.603C149.997 221.611 149.18 222.427 148.173 222.427H134.95C133.943 222.427 133.126 221.611 133.126 220.603V216.968L81.586 199.842C78.7856 198.911 75.7593 198.911 72.9589 199.842L21.871 216.818V220.603C21.871 221.611 21.0544 222.427 20.0471 222.427H6.82389C5.81658 222.427 5 221.611 5 220.603V151.752Z"/>
</mask>
<path d="M21.871 155.453H17.1936V158.849L20.4228 159.901L21.871 155.453ZM73.0374 172.113L74.4855 167.666V167.666L73.0374 172.113ZM81.5076 172.113L80.0594 167.666L81.5076 172.113ZM133.126 155.306L134.574 159.754L137.803 158.702V155.306H133.126ZM133.126 216.968H137.803V213.594L134.601 212.53L133.126 216.968ZM81.586 199.842L83.0609 195.403L81.586 199.842ZM72.9589 199.842L74.4339 204.281V204.281L72.9589 199.842ZM21.871 216.818L20.396 212.379L17.1936 213.443V216.818H21.871ZM6.82389 145.25C3.23335 145.25 0.322613 148.161 0.322613 151.752H9.67739C9.67739 153.328 8.39981 154.605 6.82389 154.605V145.25ZM20.0471 145.25H6.82389V154.605H20.0471V145.25ZM26.5483 151.752C26.5483 148.161 23.6376 145.25 20.0471 145.25V154.605C18.4711 154.605 17.1936 153.328 17.1936 151.752H26.5483ZM26.5483 155.453V151.752H17.1936V155.453H26.5483ZM74.4855 167.666L23.3191 151.006L20.4228 159.901L71.5892 176.561L74.4855 167.666ZM80.0594 167.666C78.2482 168.255 76.2967 168.255 74.4855 167.666L71.5892 176.561C75.2826 177.763 79.2623 177.763 82.9557 176.561L80.0594 167.666ZM131.678 150.859L80.0594 167.666L82.9557 176.561L134.574 159.754L131.678 150.859ZM137.803 155.306V151.752H128.449V155.306H137.803ZM137.803 151.752C137.803 153.328 136.526 154.605 134.95 154.605V145.25C131.359 145.25 128.449 148.161 128.449 151.752H137.803ZM134.95 154.605H148.173V145.25H134.95V154.605ZM148.173 154.605C146.597 154.605 145.32 153.328 145.32 151.752H154.674C154.674 148.161 151.764 145.25 148.173 145.25V154.605ZM145.32 151.752V220.603H154.674V151.752H145.32ZM145.32 220.603C145.32 219.027 146.597 217.75 148.173 217.75V227.105C151.763 227.105 154.674 224.194 154.674 220.603H145.32ZM148.173 217.75H134.95V227.105H148.173V217.75ZM134.95 217.75C136.526 217.75 137.803 219.027 137.803 220.603H128.449C128.449 224.194 131.359 227.105 134.95 227.105V217.75ZM137.803 220.603V216.968H128.449V220.603H137.803ZM80.111 204.281L131.651 221.407L134.601 212.53L83.0609 195.403L80.111 204.281ZM74.4339 204.281C76.2767 203.668 78.2682 203.668 80.111 204.281L83.0609 195.403C79.303 194.155 75.2419 194.155 71.484 195.403L74.4339 204.281ZM23.3459 221.257L74.4339 204.281L71.484 195.403L20.396 212.379L23.3459 221.257ZM26.5483 220.603V216.818H17.1936V220.603H26.5483ZM20.0471 227.105C23.6376 227.105 26.5483 224.194 26.5483 220.603H17.1936C17.1936 219.027 18.4711 217.75 20.0471 217.75V227.105ZM6.82389 227.105H20.0471V217.75H6.82389V227.105ZM0.322613 220.603C0.322613 224.194 3.23334 227.105 6.82389 227.105V217.75C8.39983 217.75 9.67739 219.027 9.67739 220.603H0.322613ZM0.322613 151.752V220.603H9.67739V151.752H0.322613Z" fill="white" mask="url(#path-14-outside-2_987_5357)"/>
<ellipse cx="71.3986" cy="120.984" rx="10.2731" ry="10.6536" fill="white"/>
<ellipse cx="92.132" cy="120.984" rx="10.4633" ry="10.6536" fill="white"/>
<ellipse cx="74.4352" cy="118.319" rx="6.08775" ry="6.46824" fill="#1E1E1E"/>
<ellipse cx="95.3713" cy="118.319" rx="5.70727" ry="6.46824" fill="#1E1E1E"/>
<path d="M9.10474 151.296L73.0374 172.113C75.7897 173.009 78.7553 173.009 81.5076 172.113L145.44 151.296V221.06L81.586 199.842C78.7856 198.911 75.7594 198.911 72.959 199.842L9.10474 221.06V151.296Z" fill="#857BFF"/>
<rect x="5" y="149.928" width="16.871" height="72.4995" rx="1.82389" fill="#695DFF"/>
<rect x="133.126" y="149.928" width="16.871" height="72.4995" rx="1.82389" fill="#695DFF"/>
<circle cx="44.1329" cy="153.828" r="9.97843" fill="#857BFF" stroke="white" stroke-width="4.67739"/>
<circle cx="110.244" cy="153.828" r="9.97843" fill="#857BFF" stroke="white" stroke-width="4.67739"/>
<mask id="path-25-outside-3_987_5357" maskUnits="userSpaceOnUse" x="166.037" y="172.625" width="87" height="105" fill="black">
<rect fill="white" x="166.037" y="172.625" width="87" height="105"/>
<path fill-rule="evenodd" clip-rule="evenodd" d="M220.305 253.711C236.69 248.968 248.669 233.853 248.669 215.941C248.669 194.227 231.067 176.625 209.353 176.625C187.64 176.625 170.037 194.227 170.037 215.941C170.037 233.369 181.378 248.149 197.082 253.304V263.046H197.081C191.689 263.046 187.318 265.291 187.318 268.059C187.318 270.828 191.689 273.073 197.081 273.073C202.473 273.073 206.844 270.828 206.844 268.059C206.844 266.407 205.288 264.942 202.887 264.029V254.728C204.991 255.076 207.151 255.257 209.353 255.257C211.098 255.257 212.816 255.143 214.5 254.923V264.49C212.706 265.399 211.593 266.663 211.593 268.059C211.593 270.828 215.965 273.073 221.356 273.073C226.748 273.073 231.119 270.828 231.119 268.059C231.119 265.291 226.748 263.046 221.356 263.046C221.001 263.046 220.651 263.056 220.305 263.075V253.711Z"/>
</mask>
<path fill-rule="evenodd" clip-rule="evenodd" d="M220.305 253.711C236.69 248.968 248.669 233.853 248.669 215.941C248.669 194.227 231.067 176.625 209.353 176.625C187.64 176.625 170.037 194.227 170.037 215.941C170.037 233.369 181.378 248.149 197.082 253.304V263.046H197.081C191.689 263.046 187.318 265.291 187.318 268.059C187.318 270.828 191.689 273.073 197.081 273.073C202.473 273.073 206.844 270.828 206.844 268.059C206.844 266.407 205.288 264.942 202.887 264.029V254.728C204.991 255.076 207.151 255.257 209.353 255.257C211.098 255.257 212.816 255.143 214.5 254.923V264.49C212.706 265.399 211.593 266.663 211.593 268.059C211.593 270.828 215.965 273.073 221.356 273.073C226.748 273.073 231.119 270.828 231.119 268.059C231.119 265.291 226.748 263.046 221.356 263.046C221.001 263.046 220.651 263.056 220.305 263.075V253.711Z" fill="#857BFF"/>
<path d="M220.305 253.711L219.205 249.909L216.348 250.736V253.711H220.305ZM197.082 253.304H201.04V250.437L198.317 249.543L197.082 253.304ZM197.082 263.046V267.004H201.04V263.046H197.082ZM202.887 264.029H198.929V266.757L201.48 267.728L202.887 264.029ZM202.887 254.728L203.533 250.823L198.929 250.061V254.728H202.887ZM214.5 254.923H218.458V250.414L213.987 250.998L214.5 254.923ZM214.5 264.49L216.289 268.021L218.458 266.922V264.49H214.5ZM220.305 263.075H216.348V267.256L220.523 267.027L220.305 263.075ZM244.711 215.941C244.711 232.044 233.942 245.643 219.205 249.909L221.406 257.513C239.437 252.293 252.627 235.663 252.627 215.941H244.711ZM209.353 180.583C228.881 180.583 244.711 196.413 244.711 215.941H252.627C252.627 192.041 233.253 172.667 209.353 172.667V180.583ZM173.995 215.941C173.995 196.413 189.826 180.583 209.353 180.583V172.667C185.454 172.667 166.079 192.041 166.079 215.941H173.995ZM198.317 249.543C184.189 244.906 173.995 231.609 173.995 215.941H166.079C166.079 235.13 178.567 251.392 195.848 257.064L198.317 249.543ZM193.124 253.304V263.046H201.04V253.304H193.124ZM197.082 259.088H197.081V267.004H197.082V259.088ZM197.081 259.088C193.889 259.088 190.803 259.744 188.37 260.994C186.144 262.136 183.36 264.424 183.36 268.059H191.276C191.276 268.926 190.678 268.707 191.986 268.035C193.086 267.47 194.881 267.004 197.081 267.004V259.088ZM183.36 268.059C183.36 271.695 186.144 273.983 188.37 275.125C190.803 276.375 193.889 277.031 197.081 277.031V269.115C194.881 269.115 193.086 268.649 191.986 268.084C190.678 267.412 191.276 267.192 191.276 268.059H183.36ZM197.081 277.031C200.273 277.031 203.359 276.375 205.793 275.125C208.018 273.983 210.802 271.695 210.802 268.059H202.886C202.886 267.192 203.485 267.412 202.177 268.084C201.077 268.649 199.281 269.115 197.081 269.115V277.031ZM210.802 268.059C210.802 265.903 209.77 264.17 208.561 262.964C207.368 261.775 205.848 260.92 204.295 260.329L201.48 267.728C202.327 268.05 202.786 268.385 202.972 268.57C203.14 268.738 202.886 268.564 202.886 268.059H210.802ZM206.845 264.029V254.728H198.929V264.029H206.845ZM209.353 251.299C207.368 251.299 205.424 251.136 203.533 250.823L202.241 258.632C204.558 259.016 206.934 259.215 209.353 259.215V251.299ZM213.987 250.998C212.472 251.196 210.926 251.299 209.353 251.299V259.215C211.27 259.215 213.159 259.09 215.014 258.847L213.987 250.998ZM218.458 264.49V254.923H210.542V264.49H218.458ZM215.551 268.059C215.551 268.247 215.512 268.406 215.468 268.517C215.426 268.621 215.391 268.654 215.417 268.623C215.444 268.591 215.518 268.511 215.667 268.399C215.816 268.287 216.02 268.157 216.289 268.021L212.712 260.959C210.465 262.098 207.636 264.392 207.636 268.059H215.551ZM221.356 269.115C219.157 269.115 217.361 268.649 216.261 268.084C214.953 267.412 215.551 267.192 215.551 268.059H207.636C207.636 271.695 210.419 273.983 212.645 275.125C215.078 276.375 218.164 277.031 221.356 277.031V269.115ZM227.161 268.059C227.161 267.192 227.76 267.412 226.452 268.084C225.352 268.649 223.556 269.115 221.356 269.115V277.031C224.549 277.031 227.635 276.375 230.068 275.125C232.294 273.983 235.077 271.695 235.077 268.059H227.161ZM221.356 267.004C223.556 267.004 225.352 267.47 226.452 268.035C227.76 268.707 227.161 268.926 227.161 268.059H235.077C235.077 264.424 232.294 262.136 230.068 260.994C227.635 259.744 224.549 259.088 221.356 259.088V267.004ZM220.523 267.027C220.795 267.012 221.074 267.004 221.356 267.004V259.088C220.929 259.088 220.506 259.1 220.088 259.123L220.523 267.027ZM216.348 253.711V263.075H224.263V253.711H216.348Z" fill="white" mask="url(#path-25-outside-3_987_5357)"/>
<path d="M220.726 174.713C222.51 174.989 224.275 174.434 225.495 173.286C226.752 172.104 227.406 170.294 226.839 168.352C226.655 167.723 226.436 167.103 226.185 166.495C225.27 164.286 223.929 162.279 222.238 160.588C220.547 158.898 218.54 157.557 216.331 156.642C214.122 155.727 211.755 155.256 209.364 155.256C206.973 155.256 204.605 155.727 202.397 156.642C200.188 157.557 198.18 158.898 196.49 160.588C194.799 162.279 193.458 164.286 192.543 166.495C192.288 167.111 192.067 167.739 191.882 168.377C191.319 170.313 191.971 172.118 193.221 173.3C194.436 174.447 196.193 175.006 197.973 174.74L201.986 174.14C207.051 173.382 212.202 173.394 217.264 174.177L220.726 174.713Z" fill="#857BFF" stroke="white" stroke-width="3.95797"/>
<ellipse cx="186.863" cy="205.213" rx="8.71669" ry="9.03953" fill="white"/>
<ellipse cx="204.458" cy="205.213" rx="8.87811" ry="9.03953" fill="white"/>
<ellipse cx="201.049" cy="205.046" rx="4.84261" ry="5.48829" fill="black"/>
<ellipse cx="183.27" cy="205.046" rx="4.84261" ry="5.48829" fill="black"/>
</svg>
