<svg width="190" height="190" viewBox="0 0 190 190" fill="none" xmlns="http://www.w3.org/2000/svg">
<path fill-rule="evenodd" clip-rule="evenodd" d="M41.8626 26.8604C41.8626 23.6853 44.4366 21.1113 47.6117 21.1113H68.2822C71.4574 21.1113 74.0313 23.6853 74.0313 26.8604V29.5809H157.758C164.109 29.5809 169.257 34.7288 169.257 41.0791V123.901C169.257 130.251 164.109 135.399 157.758 135.399H115.926V153.625C122.543 153.872 127.776 156.992 127.776 160.805C127.776 164.779 122.091 168.001 115.078 168.001C108.065 168.001 102.38 164.779 102.38 160.805C102.38 158.674 104.015 156.759 106.614 155.441V135.399H83.3324V155.441C85.9309 156.759 87.5662 158.674 87.5662 160.805C87.5662 164.779 81.8811 168.001 74.868 168.001C67.855 168.001 62.1699 164.779 62.1699 160.805C62.1699 156.992 67.4026 153.872 74.0204 153.625V135.399H32.6093C26.259 135.399 21.1111 130.251 21.1111 123.901V41.0791C21.1111 34.7288 26.259 29.5809 32.6093 29.5809H41.8626V26.8604Z" fill="#857BFF"/>
<ellipse cx="78.5931" cy="63.3121" rx="16.1896" ry="16.7892" fill="white"/>
<ellipse cx="111.274" cy="63.3121" rx="16.4894" ry="16.7892" fill="white"/>
<ellipse cx="115.504" cy="58.4083" rx="8.99419" ry="10.1934" fill="black"/>
<ellipse cx="82.48" cy="58.4083" rx="8.99419" ry="10.1934" fill="black"/>
<path d="M149.482 91.5401C150.727 97.1466 148.745 103.602 143.811 104.698C138.876 105.794 134.347 100.786 133.101 95.1794C131.94 89.9533 134.028 79.3826 136.33 74.3145C136.579 73.7658 137.264 73.6137 137.722 74.0053C141.953 77.6219 148.321 86.314 149.482 91.5401Z" fill="white"/>
</svg>
