<svg width="81" height="91" viewBox="0 0 81 91" fill="none" xmlns="http://www.w3.org/2000/svg">
<path d="M78.7656 74.3158V37.7114C78.7656 33.5753 76.9692 29.643 73.8427 26.9352L50.0034 6.2887C44.6463 1.64909 36.6945 1.64909 31.3375 6.2887L7.49819 26.9352C4.37162 29.643 2.57523 33.5753 2.57523 37.7114V74.3158C2.57523 82.1891 8.95785 88.5717 16.8312 88.5717H64.5097C72.383 88.5717 78.7656 82.1891 78.7656 74.3158Z" fill="#857BFF" stroke="white" stroke-width="4.22453"/>
<ellipse cx="40.5989" cy="55.6921" rx="23.6965" ry="23.5768" fill="#A9A3FF"/>
<ellipse cx="9.15512" cy="9.4942" rx="9.15512" ry="9.4942" transform="matrix(-1 0 0 1 58.958 25.1768)" fill="white"/>
<ellipse cx="9.32466" cy="9.4942" rx="9.32466" ry="9.4942" transform="matrix(-1 0 0 1 40.6445 25.1768)" fill="white"/>
<ellipse cx="5.08618" cy="5.76433" rx="5.08618" ry="5.76433" transform="matrix(-1 0 0 1 34.0186 26.1353)" fill="black"/>
<ellipse cx="5.08618" cy="5.76433" rx="5.08618" ry="5.76433" transform="matrix(-1 0 0 1 52.689 26.1353)" fill="black"/>
</svg>
