<svg width="174" height="20" viewBox="0 0 174 20" fill="none" xmlns="http://www.w3.org/2000/svg">
<path d="M155.568 7.70079L166.189 0.351562H173.135L160.208 9.5942L174.001 19.6223H166.441L155.568 11.6138V19.6223H150.355V0.351562H155.568V7.70079Z" fill="currentColor"/>
<path d="M139.245 19.6213V17.7279C138.584 18.0926 137.871 18.4151 137.107 18.6957C136.352 18.9762 135.565 19.2146 134.745 19.4109C133.925 19.6073 133.078 19.7522 132.202 19.8457C131.335 19.9486 130.46 20 129.575 20C128.54 20 127.539 19.9018 126.57 19.7055C125.61 19.5091 124.758 19.1912 124.013 18.7518C123.267 18.3123 122.666 17.7373 122.21 17.0266C121.763 16.316 121.539 15.4465 121.539 14.418C121.539 13.1183 121.893 12.0383 122.601 11.1781C123.309 10.3086 124.39 9.59794 125.843 9.04628C127.297 8.49462 129.132 8.06919 131.349 7.76999C133.576 7.47078 136.208 7.23703 139.245 7.06872V6.66199C139.245 6.34409 139.161 6.03086 138.994 5.7223C138.826 5.40439 138.519 5.12856 138.071 4.89481C137.633 4.65171 137.028 4.45535 136.255 4.30575C135.491 4.15615 134.512 4.08135 133.32 4.08135C132.379 4.08135 131.447 4.13277 130.525 4.23562C129.612 4.32913 128.727 4.46003 127.87 4.62833C127.022 4.79663 126.216 4.99299 125.452 5.21739C124.688 5.44179 123.994 5.67555 123.37 5.91865V1.29032C124.022 1.12202 124.753 0.958392 125.564 0.799439C126.374 0.640486 127.218 0.504909 128.093 0.392707C128.969 0.271155 129.854 0.177653 130.749 0.112202C131.643 0.0374007 132.5 0 133.32 0C134.932 0 136.418 0.135577 137.778 0.406732C139.138 0.668537 140.307 1.07994 141.286 1.64095C142.273 2.20196 143.042 2.91258 143.591 3.77279C144.15 4.63301 144.43 5.65685 144.43 6.84432V19.6213H139.245ZM139.245 10.8275C137.251 10.9023 135.556 11.0098 134.158 11.1501C132.77 11.2903 131.615 11.4539 130.693 11.641C129.77 11.828 129.044 12.029 128.513 12.244C127.991 12.4591 127.6 12.6788 127.339 12.9032C127.078 13.1276 126.915 13.352 126.85 13.5764C126.794 13.8008 126.766 14.0065 126.766 14.1935C126.766 14.418 126.826 14.6377 126.947 14.8527C127.068 15.0584 127.278 15.2408 127.576 15.3997C127.884 15.5587 128.289 15.6849 128.792 15.7784C129.295 15.8719 129.929 15.9187 130.693 15.9187C131.54 15.9187 132.37 15.8532 133.18 15.7223C133.991 15.5914 134.759 15.4137 135.486 15.1893C136.213 14.9556 136.893 14.6844 137.526 14.3759C138.169 14.058 138.742 13.7214 139.245 13.3661V10.8275Z" fill="currentColor"/>
<path d="M101.931 7.70079L112.552 0.351562H119.498L106.571 9.5942L120.364 19.6223H112.804L101.931 11.6138V19.6223H96.7188V0.351562H101.931V7.70079Z" fill="currentColor"/>
<path d="M75.2673 7.70079L85.8882 0.351562H92.8337L79.907 9.5942L93.7002 19.6223H86.1398L75.2673 11.6138V19.6223H70.0547V0.351562H75.2673V7.70079Z" fill="currentColor"/>
<path d="M58.9444 19.6213V17.7279C58.283 18.0926 57.5703 18.4151 56.8063 18.6957C56.0516 18.9762 55.2644 19.2146 54.4445 19.4109C53.6247 19.6073 52.7769 19.7522 51.9011 19.8457C51.0347 19.9486 50.1589 20 49.2738 20C48.2397 20 47.2382 19.9018 46.2692 19.7055C45.3096 19.5091 44.4572 19.1912 43.7118 18.7518C42.9665 18.3123 42.3656 17.7373 41.9091 17.0266C41.4619 16.316 41.2383 15.4465 41.2383 14.418C41.2383 13.1183 41.5923 12.0383 42.3004 11.1781C43.0084 10.3086 44.0892 9.59794 45.5425 9.04628C46.9959 8.49462 48.8313 8.06919 51.0486 7.76999C53.2753 7.47078 55.9072 7.23703 58.9444 7.06872V6.66199C58.9444 6.34409 58.8606 6.03086 58.6929 5.7223C58.5252 5.40439 58.2178 5.12856 57.7706 4.89481C57.3327 4.65171 56.7271 4.45535 55.9538 4.30575C55.1899 4.15615 54.2116 4.08135 53.0191 4.08135C52.0781 4.08135 51.1465 4.13277 50.2241 4.23562C49.3111 4.32913 48.426 4.46003 47.5689 4.62833C46.7211 4.79663 45.9152 4.99299 45.1512 5.21739C44.3873 5.44179 43.6932 5.67555 43.069 5.91865V1.29032C43.7212 1.12202 44.4525 0.958392 45.263 0.799439C46.0736 0.640486 46.9167 0.504909 47.7925 0.392707C48.6683 0.271155 49.5533 0.177653 50.4477 0.112202C51.3421 0.0374007 52.1992 0 53.0191 0C54.6309 0 56.1169 0.135577 57.4771 0.406732C58.8373 0.668537 60.0065 1.07994 60.9848 1.64095C61.9723 2.20196 62.741 2.91258 63.2906 3.77279C63.8496 4.63301 64.1291 5.65685 64.1291 6.84432V19.6213H58.9444ZM58.9444 10.8275C56.9507 10.9023 55.2551 11.0098 53.8576 11.1501C52.4694 11.2903 51.3142 11.4539 50.3918 11.641C49.4695 11.828 48.7428 12.029 48.2117 12.244C47.69 12.4591 47.2987 12.6788 47.0379 12.9032C46.777 13.1276 46.6139 13.352 46.5487 13.5764C46.4928 13.8008 46.4649 14.0065 46.4649 14.1935C46.4649 14.418 46.5254 14.6377 46.6466 14.8527C46.7677 15.0584 46.9773 15.2408 47.2754 15.3997C47.5829 15.5587 47.9881 15.6849 48.4912 15.7784C48.9943 15.8719 49.6279 15.9187 50.3918 15.9187C51.2396 15.9187 52.0688 15.8532 52.8794 15.7223C53.6899 15.5914 54.4585 15.4137 55.1852 15.1893C55.9119 14.9556 56.592 14.6844 57.2255 14.3759C57.8684 14.058 58.4414 13.7214 58.9444 13.3661V10.8275Z" fill="currentColor"/>
<path d="M16.9096 12.2084C16.9096 13.4894 16.7 14.5927 16.2807 15.5184C15.8708 16.444 15.2652 17.2061 14.464 17.8045C13.6721 18.4029 12.6985 18.847 11.5432 19.1369C10.388 19.4174 9.06969 19.5576 7.58836 19.5576C6.88961 19.5576 6.17223 19.5202 5.43622 19.4454C4.70021 19.38 3.99215 19.2958 3.31204 19.193C2.63193 19.0901 2.00306 18.9826 1.42544 18.8704C0.857126 18.7488 0.38198 18.6366 0 18.5338V14.0177C0.391296 14.1766 0.819859 14.3402 1.28569 14.5085C1.75152 14.6675 2.26859 14.8124 2.8369 14.9433C3.41453 15.0742 4.04805 15.1818 4.73748 15.2659C5.43622 15.3501 6.20484 15.3921 7.04334 15.3921C7.94704 15.3921 8.69703 15.294 9.29329 15.0976C9.89887 14.8919 10.3833 14.6114 10.7467 14.2561C11.11 13.8914 11.3662 13.466 11.5153 12.9798C11.6644 12.4936 11.7389 11.9606 11.7389 11.3809V7.84375H16.9096V12.2084Z" fill="currentColor"/>
<path d="M36.6596 12.2084C36.6596 13.4894 36.45 14.5927 36.0307 15.5184C35.6208 16.444 35.0152 17.2061 34.214 17.8045C33.4221 18.4029 32.4485 18.847 31.2932 19.1369C30.138 19.4174 28.8197 19.5576 27.3384 19.5576C26.6396 19.5576 25.9222 19.5202 25.1862 19.4454C24.4502 19.38 23.7422 19.2958 23.062 19.193C22.3819 19.0901 21.7531 18.9826 21.1754 18.8704C20.6071 18.7488 20.132 18.6366 19.75 18.5338V14.0177C20.1413 14.1766 20.5699 14.3402 21.0357 14.5085C21.5015 14.6675 22.0186 14.8124 22.5869 14.9433C23.1645 15.0742 23.7981 15.1818 24.4875 15.2659C25.1862 15.3501 25.9548 15.3921 26.7933 15.3921C27.697 15.3921 28.447 15.294 29.0433 15.0976C29.6489 14.8919 30.1333 14.6114 30.4967 14.2561C30.86 13.8914 31.1162 13.466 31.2653 12.9798C31.4144 12.4936 31.4889 11.9606 31.4889 11.3809V7.84375H36.6596V12.2084Z" fill="currentColor"/>
<rect x="11.7324" y="0.0898438" width="5.1517" height="4.88303" fill="currentColor"/>
<rect x="31.4844" y="0.0898438" width="5.1517" height="4.88303" fill="currentColor"/>
</svg>
