<svg width="28" height="26" viewBox="0 0 28 26" fill="none" xmlns="http://www.w3.org/2000/svg">
<path d="M13.9189 0C6.21381 0 0 4.97099 0 11.0058C0 14.923 2.58494 18.353 6.46236 20.3116L5.15001 25.2131C5.12526 25.2866 5.12146 25.3654 5.13901 25.4409C5.15657 25.5164 5.1948 25.5856 5.24942 25.6406C5.32907 25.7108 5.43155 25.7497 5.53775 25.7499C5.6258 25.7429 5.70934 25.7081 5.77635 25.6505L11.4235 21.8428C12.2571 21.9578 13.0973 22.0175 13.9388 22.0216C21.634 22.0216 27.8577 17.0506 27.8577 11.0058C27.8577 4.96105 21.6141 0 13.9189 0Z" fill="#392020"/>
<path d="M4.86736 9.26395H3.34622C3.15768 9.26942 2.97148 9.22113 2.80934 9.12475C2.73736 9.07965 2.67548 9.02013 2.62757 8.94999C2.57967 8.87984 2.54678 8.80055 2.53097 8.71709C2.52614 8.66418 2.52614 8.61102 2.53097 8.5581C2.52624 8.45909 2.54546 8.36035 2.587 8.27035C2.62854 8.18035 2.69117 8.10174 2.76957 8.0411C2.9429 7.91557 3.15211 7.84926 3.3661 7.85213H7.94941C8.13944 7.84546 8.32691 7.89756 8.48628 8.00129C8.55996 8.04439 8.62315 8.10338 8.67129 8.17387C8.71943 8.24436 8.75132 8.32464 8.76466 8.40895C8.76951 8.45854 8.76951 8.50851 8.76466 8.5581C8.76935 8.65854 8.75017 8.75863 8.70869 8.85023C8.66722 8.94182 8.60462 9.02221 8.52605 9.08494C8.35694 9.21032 8.14976 9.27358 7.93946 9.26395H6.46804V14.4935C6.47401 14.6049 6.45677 14.7163 6.4174 14.8207C6.37804 14.9251 6.31741 15.0202 6.23936 15.1C6.16452 15.1762 6.07456 15.2359 5.97525 15.2753C5.87593 15.3147 5.76947 15.3328 5.66272 15.3286C5.476 15.3339 5.29325 15.2743 5.14573 15.1597C5.0053 15.0477 4.90998 14.8888 4.8773 14.7122C4.86748 14.6396 4.86748 14.5661 4.8773 14.4935L4.86736 9.26395Z" fill="#FEE500"/>
<path d="M9.20841 8.24058C9.25214 8.07698 9.35483 7.9353 9.49673 7.84287C9.64793 7.75718 9.82022 7.71583 9.99384 7.72357H10.3716C10.5559 7.71697 10.7383 7.76172 10.8986 7.85283C11.0684 7.96703 11.1891 8.14092 11.2366 8.33998L13.225 13.9573C13.2766 14.1038 13.3197 14.2533 13.3543 14.4048C13.3577 14.4677 13.3577 14.5307 13.3543 14.5936C13.3576 14.6905 13.3398 14.787 13.302 14.8763C13.2642 14.9655 13.2074 15.0455 13.1355 15.1106C13.0659 15.182 12.9823 15.2383 12.8899 15.2759C12.7975 15.3135 12.6984 15.3317 12.5987 15.3293C12.4453 15.3445 12.2913 15.3078 12.1614 15.2248C12.0316 15.1418 11.9334 15.0176 11.8828 14.872L11.4653 13.6491H8.85049L8.43293 14.872C8.38354 15.0204 8.28421 15.1471 8.15187 15.2305C8.01952 15.3139 7.86236 15.3488 7.70715 15.3293C7.53903 15.3337 7.37436 15.2811 7.23987 15.1801C7.10885 15.0759 7.02044 14.9275 6.99132 14.7627C6.98605 14.7064 6.98605 14.6498 6.99132 14.5936C6.97425 14.4949 6.97425 14.3941 6.99132 14.2954C6.99132 14.186 7.06091 14.0666 7.10068 13.9573L9.20841 8.24058ZM10.2026 9.54306L9.25812 12.5257H11.1372L10.2026 9.54306Z" fill="#FEE500"/>
<path d="M13.577 8.55871C13.5669 8.33559 13.6456 8.11756 13.7958 7.95225C13.8721 7.87524 13.9638 7.81506 14.0648 7.77567C14.1658 7.73628 14.274 7.71847 14.3823 7.72348C14.5686 7.72131 14.7503 7.78077 14.8993 7.89254C15.0374 8.00917 15.1291 8.17139 15.1578 8.34984C15.1676 8.41909 15.1676 8.48946 15.1578 8.55871V13.7883H17.8919C18.0814 13.7858 18.2677 13.8374 18.4288 13.9373C18.5012 13.9819 18.5634 14.0413 18.6113 14.1116C18.6593 14.1818 18.6919 14.2613 18.7072 14.345C18.7072 14.345 18.7072 14.4444 18.7072 14.4941C18.7119 14.5931 18.6927 14.6917 18.6511 14.7817C18.6096 14.8717 18.547 14.9505 18.4685 15.0111C18.2952 15.1366 18.086 15.2028 17.872 15.2H14.5116C14.2976 15.2137 14.0848 15.158 13.9051 15.041C13.7444 14.9208 13.6373 14.7423 13.6069 14.5439C13.5996 14.4346 13.5996 14.3249 13.6069 14.2157L13.577 8.55871Z" fill="#FEE500"/>
<path d="M18.8873 8.558C18.8814 8.33553 18.9595 8.119 19.1061 7.95155C19.2551 7.81615 19.4462 7.73619 19.6472 7.72533C19.8483 7.71446 20.0469 7.77329 20.2096 7.89184C20.3507 8.00743 20.4459 8.16958 20.4781 8.34913C20.483 8.41864 20.483 8.48849 20.4781 8.558V10.9938L22.9934 8.09063C23.0903 7.99159 23.1933 7.89871 23.3016 7.81234C23.4037 7.75153 23.5208 7.72045 23.6397 7.72278C23.8134 7.72183 23.9834 7.77387 24.1268 7.87193C24.1944 7.91745 24.2521 7.97618 24.2966 8.04451C24.341 8.11284 24.3712 8.18939 24.3853 8.26964C24.3893 8.28932 24.3893 8.30967 24.3853 8.32935C24.3805 8.3523 24.3805 8.37595 24.3853 8.39889C24.385 8.50351 24.3576 8.60631 24.3058 8.69721C24.253 8.79345 24.1897 8.88339 24.1169 8.96554L22.4665 10.7751L24.4549 13.8571V13.9565C24.5581 14.099 24.6386 14.2567 24.6935 14.4239V14.4735C24.705 14.5887 24.6884 14.705 24.6451 14.8123C24.6018 14.9197 24.5331 15.0149 24.445 15.0899C24.2791 15.2153 24.0762 15.2818 23.8683 15.2789C23.7302 15.2846 23.593 15.2536 23.4706 15.1893C23.3382 15.1005 23.2291 14.9812 23.1525 14.8414L21.3033 11.8587L20.4184 12.7834V14.4436C20.4244 14.6661 20.3463 14.8826 20.1997 15.0501C20.1211 15.1269 20.0277 15.1869 19.9251 15.2262C19.8225 15.2655 19.7129 15.2835 19.6032 15.2789C19.4197 15.2827 19.2406 15.2229 19.0961 15.1098C18.9557 14.9979 18.8604 14.8391 18.8277 14.6625C18.8179 14.5899 18.8179 14.5162 18.8277 14.4436L18.8873 8.558Z" fill="#FEE500"/>
</svg>
