<svg width="28" height="28" viewBox="0 0 28 28" fill="none" xmlns="http://www.w3.org/2000/svg">
<path d="M11.6659 15.166C12.167 15.8358 12.8062 16.39 13.5402 16.7911C14.2743 17.1921 15.086 17.4306 15.9203 17.4904C16.7547 17.5501 17.5921 17.4297 18.3758 17.1374C19.1595 16.845 19.8712 16.3876 20.4626 15.796L23.9626 12.296C25.0252 11.1958 25.6131 9.72228 25.5999 8.1928C25.5866 6.66332 24.9731 5.20025 23.8915 4.1187C22.81 3.03715 21.3469 2.42367 19.8174 2.41038C18.2879 2.39709 16.8144 2.98505 15.7143 4.04764L13.7076 6.04264M16.3326 12.8326C15.8316 12.1628 15.1923 11.6086 14.4583 11.2075C13.7242 10.8065 12.9125 10.568 12.0782 10.5083C11.2438 10.4485 10.4064 10.5689 9.62269 10.8612C8.83897 11.1536 8.12729 11.6111 7.53592 12.2026L4.03592 15.7026C2.97333 16.8028 2.38537 18.2763 2.39866 19.8058C2.41195 21.3353 3.02543 22.7984 4.10698 23.8799C5.18853 24.9615 6.6516 25.575 8.18108 25.5882C9.71056 25.6015 11.1841 25.0136 12.2843 23.951L14.2793 21.956" stroke="currentColor" stroke-width="2" stroke-linecap="round" stroke-linejoin="round"/>
</svg>
