<svg width="131" height="15" viewBox="0 0 131 15" fill="none" xmlns="http://www.w3.org/2000/svg">
<path d="M117.122 5.77559L125.118 0.263672H130.347L120.615 7.19565L130.999 14.7167H125.307L117.122 8.71038V14.7167H113.197V0.263672H117.122V5.77559Z" fill="currentColor"/>
<path d="M104.832 14.716V13.2959C104.334 13.5694 103.798 13.8114 103.223 14.0217C102.655 14.2321 102.062 14.4109 101.445 14.5582C100.827 14.7055 100.189 14.8142 99.5297 14.8843C98.8774 14.9614 98.2181 15 97.5517 15C96.7731 15 96.0191 14.9264 95.2896 14.7791C94.5672 14.6318 93.9254 14.3934 93.3642 14.0638C92.8031 13.7342 92.3507 13.3029 92.007 12.77C91.6703 12.237 91.502 11.5849 91.502 10.8135C91.502 9.83871 91.7685 9.02875 92.3016 8.38359C92.8347 7.73142 93.6483 7.19846 94.7425 6.78471C95.8367 6.37097 97.2185 6.05189 98.8879 5.82749C100.564 5.60309 102.546 5.42777 104.832 5.30154V4.99649C104.832 4.75806 104.769 4.52314 104.643 4.29173C104.517 4.0533 104.285 3.84642 103.949 3.67111C103.619 3.48878 103.163 3.34151 102.581 3.22931C102.006 3.11711 101.269 3.06101 100.371 3.06101C99.663 3.06101 98.9616 3.09958 98.2672 3.17672C97.5798 3.24684 96.9134 3.34502 96.2681 3.47125C95.6298 3.59748 95.0231 3.74474 94.4479 3.91304C93.8728 4.08135 93.3502 4.25666 92.8802 4.43899V0.967742C93.3712 0.841515 93.9219 0.718794 94.5321 0.599579C95.1423 0.480365 95.7771 0.378682 96.4364 0.29453C97.0958 0.203366 97.7621 0.13324 98.4355 0.0841515C99.1089 0.0280505 99.7542 0 100.371 0C101.585 0 102.704 0.101683 103.728 0.305049C104.752 0.501402 105.632 0.809958 106.369 1.23072C107.112 1.65147 107.691 2.18443 108.105 2.82959C108.525 3.47475 108.736 4.24264 108.736 5.13324V14.716H104.832ZM104.832 8.12062C103.331 8.17672 102.055 8.25736 101.003 8.36255C99.9576 8.46774 99.0878 8.59046 98.3934 8.73072C97.699 8.87097 97.1519 9.02174 96.7521 9.18303C96.3593 9.34432 96.0647 9.50912 95.8683 9.67742C95.6719 9.84572 95.5492 10.014 95.5001 10.1823C95.458 10.3506 95.4369 10.5049 95.4369 10.6452C95.4369 10.8135 95.4825 10.9783 95.5737 11.1396C95.6649 11.2938 95.8227 11.4306 96.0472 11.5498C96.2786 11.669 96.5837 11.7637 96.9625 11.8338C97.3413 11.9039 97.8182 11.939 98.3934 11.939C99.0317 11.939 99.656 11.8899 100.266 11.7917C100.876 11.6935 101.455 11.5603 102.002 11.392C102.549 11.2167 103.061 11.0133 103.538 10.7819C104.022 10.5435 104.454 10.291 104.832 10.0245V8.12062Z" fill="currentColor"/>
<path d="M76.7409 5.77559L84.7371 0.263672H89.9661L80.2339 7.19565L90.6185 14.7167H84.9264L76.7409 8.71038V14.7167H72.8164V0.263672H76.7409V5.77559Z" fill="currentColor"/>
<path d="M56.6666 5.77559L64.6628 0.263672H69.8919L60.1597 7.19565L70.5443 14.7167H64.8522L56.6666 8.71038V14.7167H52.7422V0.263672H56.6666V5.77559Z" fill="currentColor"/>
<path d="M44.3774 14.716V13.2959C43.8794 13.5694 43.3428 13.8114 42.7676 14.0217C42.1995 14.2321 41.6068 14.4109 40.9895 14.5582C40.3723 14.7055 39.734 14.8142 39.0746 14.8843C38.4223 14.9614 37.763 15 37.0966 15C36.3181 15 35.564 14.9264 34.8345 14.7791C34.1121 14.6318 33.4703 14.3934 32.9091 14.0638C32.348 13.7342 31.8956 13.3029 31.5519 12.77C31.2152 12.237 31.0469 11.5849 31.0469 10.8135C31.0469 9.83871 31.3134 9.02875 31.8465 8.38359C32.3796 7.73142 33.1932 7.19846 34.2874 6.78471C35.3817 6.37097 36.7635 6.05189 38.4328 5.82749C40.1092 5.60309 42.0907 5.42777 44.3774 5.30154V4.99649C44.3774 4.75806 44.3142 4.52314 44.188 4.29173C44.0617 4.0533 43.8303 3.84642 43.4936 3.67111C43.1639 3.48878 42.708 3.34151 42.1258 3.22931C41.5507 3.11711 40.8142 3.06101 39.9163 3.06101C39.2079 3.06101 38.5065 3.09958 37.8121 3.17672C37.1247 3.24684 36.4583 3.34502 35.813 3.47125C35.1747 3.59748 34.568 3.74474 33.9928 3.91304C33.4177 4.08135 32.8951 4.25666 32.4252 4.43899V0.967742C32.9162 0.841515 33.4668 0.718794 34.077 0.599579C34.6872 0.480365 35.322 0.378682 35.9814 0.29453C36.6407 0.203366 37.3071 0.13324 37.9804 0.0841515C38.6538 0.0280505 39.2991 0 39.9163 0C41.1298 0 42.2486 0.101683 43.2726 0.305049C44.2967 0.501402 45.177 0.809958 45.9135 1.23072C46.657 1.65147 47.2357 2.18443 47.6495 2.82959C48.0704 3.47475 48.2808 4.24264 48.2808 5.13324V14.716H44.3774ZM44.3774 8.12062C42.8763 8.17672 41.5998 8.25736 40.5476 8.36255C39.5025 8.46774 38.6327 8.59046 37.9383 8.73072C37.2439 8.87097 36.6968 9.02174 36.297 9.18303C35.9042 9.34432 35.6096 9.50912 35.4132 9.67742C35.2168 9.84572 35.0941 10.014 35.045 10.1823C35.0029 10.3506 34.9818 10.5049 34.9818 10.6452C34.9818 10.8135 35.0274 10.9783 35.1186 11.1396C35.2098 11.2938 35.3676 11.4306 35.5921 11.5498C35.8236 11.669 36.1287 11.7637 36.5074 11.8338C36.8862 11.9039 37.3632 11.939 37.9383 11.939C38.5766 11.939 39.2009 11.8899 39.8111 11.7917C40.4214 11.6935 41 11.5603 41.5471 11.392C42.0943 11.2167 42.6063 11.0133 43.0833 10.7819C43.5672 10.5435 43.9986 10.291 44.3774 10.0245V8.12062Z" fill="currentColor"/>
<path d="M12.7308 9.15631C12.7308 10.117 12.573 10.9445 12.2573 11.6388C11.9487 12.333 11.4928 12.9046 10.8896 13.3534C10.2933 13.8022 9.56036 14.1353 8.6906 14.3527C7.82084 14.563 6.82833 14.6682 5.71307 14.6682C5.18701 14.6682 4.64691 14.6402 4.09279 14.5841C3.53867 14.535 3.00559 14.4719 2.49355 14.3947C1.98151 14.3176 1.50805 14.237 1.07317 14.1528C0.645307 14.0616 0.287583 13.9775 0 13.9003V10.5132C0.294597 10.6325 0.61725 10.7552 0.967961 10.8814C1.31867 11.0006 1.70796 11.1093 2.13583 11.2075C2.57071 11.3057 3.04767 11.3863 3.56672 11.4494C4.09279 11.5125 4.67146 11.5441 5.30274 11.5441C5.98312 11.5441 6.54776 11.4705 6.99667 11.3232C7.4526 11.1689 7.81733 10.9585 8.09089 10.6921C8.36444 10.4186 8.55733 10.0995 8.66956 9.73485C8.78179 9.37019 8.8379 8.97047 8.8379 8.53569V5.88281H12.7308V9.15631Z" fill="currentColor"/>
<path d="M27.5999 9.15631C27.5999 10.117 27.4421 10.9445 27.1265 11.6388C26.8178 12.333 26.3619 12.9046 25.7587 13.3534C25.1625 13.8022 24.4295 14.1353 23.5597 14.3527C22.69 14.563 21.6975 14.6682 20.5822 14.6682C20.0561 14.6682 19.5161 14.6402 18.9619 14.5841C18.4078 14.535 17.8747 14.4719 17.3627 14.3947C16.8507 14.3176 16.3772 14.237 15.9423 14.1528C15.5144 14.0616 15.1567 13.9775 14.8691 13.9003V10.5132C15.1637 10.6325 15.4864 10.7552 15.8371 10.8814C16.1878 11.0006 16.5771 11.1093 17.005 11.2075C17.4398 11.3057 17.9168 11.3863 18.4359 11.4494C18.9619 11.5125 19.5406 11.5441 20.1719 11.5441C20.8523 11.5441 21.4169 11.4705 21.8658 11.3232C22.3217 11.1689 22.6865 10.9585 22.96 10.6921C23.2336 10.4186 23.4265 10.0995 23.5387 9.73485C23.6509 9.37019 23.707 8.97047 23.707 8.53569V5.88281H27.5999V9.15631Z" fill="currentColor"/>
<rect x="8.83398" y="0.0664062" width="3.87858" height="3.66227" fill="currentColor"/>
<rect x="23.7031" y="0.0664062" width="3.87858" height="3.66227" fill="currentColor"/>
</svg>
